<svg xmlns="http://www.w3.org/2000/svg" xmlns:xlink="http://www.w3.org/1999/xlink" width="200px" height="100px" viewBox="60 85 70 20" version="1.1">
<g id="surface1">
<path style=" stroke:none;fill-rule:nonzero;fill:#000000;fill-opacity:1;" d="M 63.910156 103.859375 C 63.660156 103.957031 63.390625 104.007812 63.101562 104.007812 C 61.984375 104.007812 61.425781 103.472656 61.425781 102.390625 C 61.425781 101.382812 61.964844 100.875 63.042969 100.875 C 63.355469 100.875 63.644531 100.917969 63.910156 101 L 63.910156 101.351562 C 63.644531 101.25 63.371094 101.199219 63.09375 101.199219 C 62.246094 101.199219 61.828125 101.597656 61.828125 102.390625 C 61.828125 103.253906 62.238281 103.683594 63.070312 103.683594 C 63.203125 103.683594 63.347656 103.664062 63.511719 103.625 L 63.511719 102.574219 L 63.910156 102.574219 Z M 63.910156 103.859375 "/>
<path style=" stroke:none;fill-rule:nonzero;fill:#000000;fill-opacity:1;" d="M 65.472656 102.433594 C 65.472656 103.265625 65.847656 103.683594 66.597656 103.683594 C 67.332031 103.683594 67.703125 103.265625 67.703125 102.433594 C 67.703125 101.613281 67.332031 101.199219 66.597656 101.199219 C 65.847656 101.199219 65.472656 101.613281 65.472656 102.433594 Z M 65.046875 102.441406 C 65.046875 101.398438 65.5625 100.875 66.597656 100.875 C 67.617188 100.875 68.128906 101.398438 68.128906 102.441406 C 68.128906 103.488281 67.617188 104.007812 66.597656 104.007812 C 65.5625 104.007812 65.046875 103.488281 65.046875 102.441406 Z M 65.046875 102.441406 "/>
<path style=" stroke:none;fill-rule:nonzero;fill:#000000;fill-opacity:1;" d="M 70.976562 102.792969 L 70.976562 100.890625 L 71.378906 100.890625 L 71.378906 102.792969 C 71.378906 103.386719 71.671875 103.683594 72.269531 103.683594 C 72.855469 103.683594 73.152344 103.386719 73.152344 102.792969 L 73.152344 100.890625 L 73.554688 100.890625 L 73.554688 102.792969 C 73.554688 103.605469 73.125 104.007812 72.269531 104.007812 C 71.40625 104.007812 70.976562 103.605469 70.976562 102.792969 Z M 70.976562 102.792969 "/>
<path style=" stroke:none;fill-rule:nonzero;fill:#000000;fill-opacity:1;" d="M 74.851562 103.984375 L 74.851562 100.890625 L 76.101562 100.890625 C 76.734375 100.890625 77.050781 101.171875 77.050781 101.726562 C 77.050781 102.324219 76.621094 102.691406 75.757812 102.824219 L 75.675781 102.484375 C 76.308594 102.390625 76.625 102.140625 76.625 101.742188 C 76.625 101.398438 76.4375 101.226562 76.066406 101.226562 L 75.25 101.226562 L 75.25 103.984375 Z M 74.851562 103.984375 "/>
<path style=" stroke:none;fill-rule:nonzero;fill:#000000;fill-opacity:1;" d="M 78.414062 103.582031 L 78.414062 103.984375 L 78.015625 103.984375 L 78.015625 103.582031 Z M 78.414062 103.582031 "/>
<path style=" stroke:none;fill-rule:nonzero;fill:#000000;fill-opacity:1;" d="M 83.582031 103.859375 C 83.332031 103.957031 83.058594 104.007812 82.773438 104.007812 C 81.65625 104.007812 81.097656 103.472656 81.097656 102.390625 C 81.097656 101.382812 81.632812 100.875 82.714844 100.875 C 83.023438 100.875 83.3125 100.917969 83.582031 101 L 83.582031 101.351562 C 83.3125 101.25 83.039062 101.199219 82.761719 101.199219 C 81.917969 101.199219 81.496094 101.597656 81.496094 102.390625 C 81.496094 103.253906 81.910156 103.683594 82.738281 103.683594 C 82.871094 103.683594 83.019531 103.664062 83.179688 103.625 L 83.179688 102.574219 L 83.582031 102.574219 Z M 83.582031 103.859375 "/>
<path style=" stroke:none;fill-rule:nonzero;fill:#000000;fill-opacity:1;" d="M 85.140625 102.433594 C 85.140625 103.265625 85.515625 103.683594 86.265625 103.683594 C 87.003906 103.683594 87.375 103.265625 87.375 102.433594 C 87.375 101.613281 87.003906 101.199219 86.265625 101.199219 C 85.515625 101.199219 85.140625 101.613281 85.140625 102.433594 Z M 84.714844 102.441406 C 84.714844 101.398438 85.234375 100.875 86.265625 100.875 C 87.289062 100.875 87.800781 101.398438 87.800781 102.441406 C 87.800781 103.488281 87.289062 104.007812 86.265625 104.007812 C 85.234375 104.007812 84.714844 103.488281 84.714844 102.441406 Z M 84.714844 102.441406 "/>
<path style=" stroke:none;fill-rule:nonzero;fill:#000000;fill-opacity:1;" d="M 91.796875 103.660156 C 92.550781 103.660156 92.929688 103.226562 92.929688 102.359375 C 92.929688 101.597656 92.550781 101.21875 91.796875 101.21875 L 91.074219 101.21875 L 91.074219 103.660156 Z M 90.671875 103.984375 L 90.671875 100.890625 L 91.796875 100.890625 C 92.820312 100.890625 93.332031 101.382812 93.332031 102.359375 C 93.332031 103.441406 92.820312 103.984375 91.796875 103.984375 Z M 90.671875 103.984375 "/>
<path style=" stroke:none;fill-rule:nonzero;fill:#000000;fill-opacity:1;" d="M 96.523438 100.890625 L 96.523438 101.21875 L 94.898438 101.21875 L 94.898438 102.257812 L 96.441406 102.257812 L 96.441406 102.574219 L 94.898438 102.574219 L 94.898438 103.660156 L 96.550781 103.660156 L 96.550781 103.984375 L 94.5 103.984375 L 94.5 100.890625 Z M 96.523438 100.890625 "/>
<path style=" stroke:none;fill-rule:nonzero;fill:#000000;fill-opacity:1;" d="M 99.765625 100.890625 L 99.765625 101.21875 L 98.140625 101.21875 L 98.140625 102.257812 L 99.683594 102.257812 L 99.683594 102.574219 L 98.140625 102.574219 L 98.140625 103.660156 L 99.792969 103.660156 L 99.792969 103.984375 L 97.742188 103.984375 L 97.742188 100.890625 Z M 99.765625 100.890625 "/>
<path style=" stroke:none;fill-rule:nonzero;fill:#000000;fill-opacity:1;" d="M 100.984375 103.984375 L 100.984375 100.890625 L 102.234375 100.890625 C 102.867188 100.890625 103.183594 101.171875 103.183594 101.726562 C 103.183594 102.324219 102.753906 102.691406 101.894531 102.824219 L 101.808594 102.484375 C 102.445312 102.390625 102.761719 102.140625 102.761719 101.742188 C 102.761719 101.398438 102.574219 101.226562 102.203125 101.226562 L 101.386719 101.226562 L 101.386719 103.984375 Z M 100.984375 103.984375 "/>
<path style=" stroke:none;fill-rule:nonzero;fill:#000000;fill-opacity:1;" d="M 104.550781 103.582031 L 104.550781 103.984375 L 104.148438 103.984375 L 104.148438 103.582031 Z M 104.550781 103.582031 "/>
<path style=" stroke:none;fill-rule:nonzero;fill:#000000;fill-opacity:1;" d="M 109.714844 103.859375 C 109.464844 103.957031 109.195312 104.007812 108.90625 104.007812 C 107.789062 104.007812 107.230469 103.472656 107.230469 102.390625 C 107.230469 101.382812 107.769531 100.875 108.847656 100.875 C 109.160156 100.875 109.449219 100.917969 109.714844 101 L 109.714844 101.351562 C 109.449219 101.25 109.175781 101.199219 108.898438 101.199219 C 108.050781 101.199219 107.632812 101.597656 107.632812 102.390625 C 107.632812 103.253906 108.042969 103.683594 108.871094 103.683594 C 109.007812 103.683594 109.152344 103.664062 109.316406 103.625 L 109.316406 102.574219 L 109.714844 102.574219 Z M 109.714844 103.859375 "/>
<path style=" stroke:none;fill-rule:nonzero;fill:#000000;fill-opacity:1;" d="M 111.277344 102.433594 C 111.277344 103.265625 111.652344 103.683594 112.402344 103.683594 C 113.136719 103.683594 113.507812 103.265625 113.507812 102.433594 C 113.507812 101.613281 113.136719 101.199219 112.402344 101.199219 C 111.652344 101.199219 111.277344 101.613281 111.277344 102.433594 Z M 110.851562 102.441406 C 110.851562 101.398438 111.367188 100.875 112.402344 100.875 C 113.421875 100.875 113.933594 101.398438 113.933594 102.441406 C 113.933594 103.488281 113.421875 104.007812 112.402344 104.007812 C 111.367188 104.007812 110.851562 103.488281 110.851562 102.441406 Z M 110.851562 102.441406 "/>
<path style=" stroke:none;fill-rule:nonzero;fill:#000000;fill-opacity:1;" d="M 116.550781 100.890625 L 116.933594 100.890625 L 117.367188 103.582031 L 118.242188 100.890625 L 118.640625 100.890625 L 119.574219 103.582031 L 120.066406 100.890625 L 120.441406 100.890625 L 119.855469 103.984375 L 119.316406 103.984375 L 118.441406 101.390625 L 117.589844 103.984375 L 117.058594 103.984375 Z M 116.550781 100.890625 "/>
<path style=" stroke:none;fill-rule:nonzero;fill:#000000;fill-opacity:1;" d="M 121.964844 100.890625 L 121.964844 103.984375 L 121.566406 103.984375 L 121.566406 100.890625 Z M 121.964844 100.890625 "/>
<path style=" stroke:none;fill-rule:nonzero;fill:#000000;fill-opacity:1;" d="M 124.472656 103.660156 C 125.226562 103.660156 125.605469 103.226562 125.605469 102.359375 C 125.605469 101.597656 125.226562 101.21875 124.472656 101.21875 L 123.746094 101.21875 L 123.746094 103.660156 Z M 123.347656 103.984375 L 123.347656 100.890625 L 124.472656 100.890625 C 125.492188 100.890625 126.003906 101.382812 126.003906 102.359375 C 126.003906 103.441406 125.492188 103.984375 124.472656 103.984375 Z M 123.347656 103.984375 "/>
<path style=" stroke:none;fill-rule:nonzero;fill:#000000;fill-opacity:1;" d="M 129.199219 100.890625 L 129.199219 101.21875 L 127.574219 101.21875 L 127.574219 102.257812 L 129.117188 102.257812 L 129.117188 102.574219 L 127.574219 102.574219 L 127.574219 103.660156 L 129.222656 103.660156 L 129.222656 103.984375 L 127.171875 103.984375 L 127.171875 100.890625 Z M 129.199219 100.890625 "/>
<path style=" stroke:none;fill-rule:nonzero;fill:#000000;fill-opacity:1;" d="M 130.667969 103.582031 L 130.667969 103.984375 L 130.265625 103.984375 L 130.265625 103.582031 Z M 130.667969 103.582031 "/>
<path style=" stroke:none;fill-rule:nonzero;fill:#000000;fill-opacity:1;" d="M 62.46875 96.390625 L 62.46875 88.003906 L 63.910156 88.003906 L 69.875 94.1875 L 69.652344 94.1875 L 69.652344 88.003906 L 71.367188 88.003906 L 71.367188 96.390625 L 69.894531 96.390625 L 63.96875 90.230469 L 64.183594 90.230469 L 64.183594 96.390625 Z M 62.46875 96.390625 "/>
<path style=" stroke:none;fill-rule:nonzero;fill:#000000;fill-opacity:1;" d="M 80.089844 96.503906 C 79.328125 96.503906 78.644531 96.40625 78.035156 96.214844 C 77.421875 96.015625 76.894531 95.726562 76.449219 95.347656 C 76.003906 94.96875 75.667969 94.519531 75.433594 93.988281 C 75.199219 93.457031 75.082031 92.863281 75.082031 92.207031 C 75.082031 91.546875 75.203125 90.953125 75.441406 90.421875 C 75.679688 89.894531 76.019531 89.441406 76.457031 89.0625 C 76.894531 88.679688 77.421875 88.390625 78.035156 88.1875 C 78.648438 87.988281 79.335938 87.890625 80.101562 87.890625 C 80.855469 87.890625 81.539062 87.992188 82.148438 88.199219 C 82.761719 88.402344 83.285156 88.691406 83.714844 89.0625 C 84.152344 89.429688 84.492188 89.878906 84.734375 90.414062 C 84.976562 90.941406 85.101562 91.53125 85.101562 92.179688 C 85.101562 92.835938 84.980469 93.429688 84.742188 93.964844 C 84.503906 94.496094 84.164062 94.953125 83.726562 95.332031 C 83.285156 95.710938 82.761719 96 82.148438 96.207031 C 81.539062 96.40625 80.851562 96.503906 80.089844 96.503906 Z M 80.089844 95.046875 C 80.746094 95.046875 81.308594 94.933594 81.785156 94.707031 C 82.253906 94.472656 82.617188 94.144531 82.875 93.714844 C 83.136719 93.285156 83.265625 92.777344 83.265625 92.1875 C 83.265625 91.59375 83.136719 91.085938 82.882812 90.65625 C 82.628906 90.230469 82.261719 89.902344 81.785156 89.679688 C 81.308594 89.460938 80.746094 89.347656 80.089844 89.347656 C 79.429688 89.347656 78.863281 89.460938 78.390625 89.6875 C 77.925781 89.917969 77.558594 90.246094 77.300781 90.671875 C 77.042969 91.101562 76.917969 91.613281 76.917969 92.207031 C 76.917969 92.800781 77.042969 93.308594 77.292969 93.730469 C 77.546875 94.152344 77.910156 94.480469 78.382812 94.707031 C 78.859375 94.933594 79.429688 95.046875 80.089844 95.046875 Z M 80.089844 95.046875 "/>
<path style=" stroke:none;fill-rule:nonzero;fill:#000000;fill-opacity:1;" d="M 88.800781 96.390625 L 88.800781 88.003906 L 93.449219 88.003906 C 94.539062 88.003906 95.378906 88.191406 95.964844 88.5625 C 96.554688 88.9375 96.851562 89.460938 96.851562 90.128906 C 96.851562 90.671875 96.675781 91.105469 96.324219 91.4375 C 95.980469 91.773438 95.492188 91.996094 94.867188 92.105469 L 94.867188 92.015625 C 95.328125 92.070312 95.726562 92.1875 96.066406 92.363281 C 96.410156 92.535156 96.671875 92.765625 96.851562 93.046875 C 97.027344 93.328125 97.117188 93.667969 97.117188 94.074219 C 97.117188 94.554688 96.976562 94.972656 96.699219 95.324219 C 96.425781 95.667969 96.027344 95.929688 95.507812 96.113281 C 94.992188 96.296875 94.359375 96.390625 93.617188 96.390625 Z M 90.523438 95.074219 L 93.492188 95.074219 C 93.644531 95.074219 93.808594 95.0625 93.976562 95.046875 C 94.144531 95.03125 94.316406 95.003906 94.484375 94.964844 C 94.648438 94.925781 94.800781 94.863281 94.933594 94.773438 C 95.070312 94.683594 95.175781 94.570312 95.25 94.429688 C 95.328125 94.292969 95.367188 94.125 95.367188 93.929688 C 95.367188 93.710938 95.328125 93.53125 95.25 93.398438 C 95.175781 93.261719 95.070312 93.148438 94.933594 93.0625 C 94.800781 92.980469 94.652344 92.921875 94.492188 92.890625 C 94.328125 92.851562 94.164062 92.828125 93.992188 92.824219 C 93.820312 92.8125 93.660156 92.804688 93.507812 92.804688 L 90.523438 92.804688 Z M 90.523438 91.480469 L 93.257812 91.480469 C 93.910156 91.480469 94.378906 91.394531 94.667969 91.222656 C 94.960938 91.050781 95.109375 90.777344 95.109375 90.398438 C 95.109375 90.03125 94.960938 89.761719 94.667969 89.589844 C 94.378906 89.410156 93.902344 89.324219 93.25 89.324219 L 90.523438 89.324219 Z M 90.523438 91.480469 "/>
<path style=" stroke:none;fill-rule:nonzero;fill:#000000;fill-opacity:1;" d="M 100.820312 96.390625 L 100.820312 88.003906 L 102.59375 88.003906 L 102.59375 96.390625 Z M 100.820312 96.390625 "/>
<path style=" stroke:none;fill-rule:nonzero;fill:#000000;fill-opacity:1;" d="M 106.667969 96.390625 L 106.667969 88.003906 L 108.441406 88.003906 L 108.441406 94.921875 L 113.519531 94.921875 L 113.519531 96.390625 Z M 106.667969 96.390625 "/>
<path style=" stroke:none;fill-rule:nonzero;fill:#000000;fill-opacity:1;" d="M 116.675781 96.390625 L 116.675781 88.003906 L 118.453125 88.003906 L 118.453125 96.390625 Z M 116.675781 96.390625 "/>
<path style=" stroke:none;fill-rule:nonzero;fill:#000000;fill-opacity:1;" d="M 126.132812 96.503906 C 125.59375 96.503906 125.070312 96.464844 124.558594 96.390625 C 124.046875 96.316406 123.570312 96.207031 123.132812 96.054688 C 122.703125 95.90625 122.316406 95.722656 121.984375 95.503906 L 122.578125 94.15625 C 122.953125 94.378906 123.332031 94.554688 123.710938 94.6875 C 124.085938 94.824219 124.484375 94.921875 124.902344 94.980469 C 125.316406 95.042969 125.757812 95.074219 126.226562 95.074219 C 126.929688 95.074219 127.476562 94.988281 127.867188 94.8125 C 128.253906 94.644531 128.453125 94.378906 128.453125 94.03125 C 128.453125 93.804688 128.390625 93.628906 128.269531 93.515625 C 128.152344 93.394531 127.976562 93.304688 127.75 93.246094 C 127.527344 93.1875 127.257812 93.136719 126.941406 93.097656 L 124.953125 92.832031 C 124.019531 92.714844 123.320312 92.460938 122.867188 92.0625 C 122.417969 91.664062 122.191406 91.136719 122.191406 90.480469 C 122.191406 89.941406 122.363281 89.480469 122.703125 89.089844 C 123.039062 88.703125 123.507812 88.402344 124.109375 88.199219 C 124.714844 87.992188 125.417969 87.890625 126.21875 87.890625 C 126.71875 87.890625 127.195312 87.929688 127.652344 88.003906 C 128.105469 88.085938 128.523438 88.203125 128.902344 88.355469 C 129.285156 88.511719 129.621094 88.703125 129.910156 88.929688 L 129.308594 90.238281 C 128.851562 89.917969 128.371094 89.683594 127.867188 89.539062 C 127.367188 89.394531 126.789062 89.324219 126.132812 89.324219 C 125.679688 89.324219 125.285156 89.363281 124.960938 89.449219 C 124.628906 89.527344 124.378906 89.644531 124.210938 89.796875 C 124.042969 89.953125 123.960938 90.144531 123.960938 90.371094 C 123.960938 90.683594 124.078125 90.910156 124.316406 91.046875 C 124.5625 91.1875 124.9375 91.296875 125.441406 91.371094 L 127.308594 91.628906 C 128.269531 91.761719 128.996094 92.011719 129.484375 92.390625 C 129.976562 92.769531 130.226562 93.292969 130.226562 93.964844 C 130.226562 94.488281 130.058594 94.9375 129.726562 95.324219 C 129.398438 95.707031 128.925781 96 128.308594 96.207031 C 127.695312 96.40625 126.972656 96.503906 126.132812 96.503906 Z M 126.132812 96.503906 "/>
</g>
</svg>