<svg xmlns="http://www.w3.org/2000/svg" width="260" height="40" viewBox="60 87 70 10">
  <g fill="#000">
    <!-- N -->
    <path d="M62.46875 96.390625 L62.46875 88.003906 L63.910156 88.003906 L69.875 94.1875 L69.652344 94.1875 L69.652344 88.003906 L71.367188 88.003906 L71.367188 96.390625 L69.894531 96.390625 L63.96875 90.230469 L64.183594 90.230469 L64.183594 96.390625 Z"/>
    <!-- O -->
    <path d="M80.089844 96.503906 C79.328125 96.503906 78.644531 96.40625 78.035156 96.214844 C77.421875 96.015625 76.894531 95.726562 76.449219 95.347656 C76.003906 94.96875 75.667969 94.519531 75.433594 93.988281 C75.199219 93.457031 75.082031 92.863281 75.082031 92.207031 C75.082031 91.546875 75.203125 90.953125 75.441406 90.421875 C75.679688 89.894531 76.019531 89.441406 76.457031 89.0625 C76.894531 88.679688 77.421875 88.390625 78.035156 88.1875 C78.648438 87.988281 79.335938 87.890625 80.101562 87.890625 C80.855469 87.890625 81.539062 87.992188 82.148438 88.199219 C82.761719 88.402344 83.285156 88.691406 83.714844 89.0625 C84.152344 89.429688 84.492188 89.878906 84.734375 90.414062 C84.976562 90.941406 85.101562 91.53125 85.101562 92.179688 C85.101562 92.835938 84.980469 93.429688 84.742188 93.964844 C84.503906 94.496094 84.164062 94.953125 83.726562 95.332031 C83.285156 95.710938 82.761719 96 82.148438 96.207031 C81.539062 96.40625 80.851562 96.503906 80.089844 96.503906 Z M80.089844 95.046875 C80.746094 95.046875 81.308594 94.933594 81.785156 94.707031 C82.253906 94.472656 82.617188 94.144531 82.875 93.714844 C83.136719 93.285156 83.265625 92.777344 83.265625 92.1875 C83.265625 91.59375 83.136719 91.085938 82.882812 90.65625 C82.628906 90.230469 82.261719 89.902344 81.785156 89.679688 C81.308594 89.460938 80.746094 89.347656 80.089844 89.347656 C79.429688 89.347656 78.863281 89.460938 78.390625 89.6875 C77.925781 89.917969 77.558594 90.246094 77.300781 90.671875 C77.042969 91.101562 76.917969 91.613281 76.917969 92.207031 C76.917969 92.800781 77.042969 93.308594 77.292969 93.730469 C77.546875 94.152344 77.910156 94.480469 78.382812 94.707031 C78.859375 94.933594 79.429688 95.046875 80.089844 95.046875 Z"/>
    <!-- B -->
    <path d="M88.800781 96.390625 L88.800781 88.003906 L93.449219 88.003906 C94.539062 88.003906 95.378906 88.191406 95.964844 88.5625 C96.554688 88.9375 96.851562 89.460938 96.851562 90.128906 C96.851562 90.671875 96.675781 91.105469 96.324219 91.4375 C95.980469 91.773438 95.492188 91.996094 94.867188 92.105469 L94.867188 92.015625 C95.328125 92.070312 95.726562 92.1875 96.066406 92.363281 C96.410156 92.535156 96.671875 92.765625 96.851562 93.046875 C97.027344 93.328125 97.117188 93.667969 97.117188 94.074219 C97.117188 94.554688 96.976562 94.972656 96.699219 95.324219 C96.425781 95.667969 96.027344 95.929688 95.507812 96.113281 C94.992188 96.296875 94.359375 96.390625 93.617188 96.390625 Z M90.523438 95.074219 L93.492188 95.074219 C93.644531 95.074219 93.808594 95.0625 93.976562 95.046875 C94.144531 95.03125 94.316406 95.003906 94.484375 94.964844 C94.648438 94.925781 94.800781 94.863281 94.933594 94.773438 C95.070312 94.683594 95.175781 94.570312 95.25 94.429688 C95.328125 94.292969 95.367188 94.125 95.367188 93.929688 C95.367188 93.710938 95.328125 93.53125 95.25 93.398438 C95.175781 93.261719 95.070312 93.148438 94.933594 93.0625 C94.800781 92.980469 94.652344 92.921875 94.492188 92.890625 C94.328125 92.851562 94.164062 92.828125 93.992188 92.824219 C93.820312 92.8125 93.660156 92.804688 93.507812 92.804688 L90.523438 92.804688 Z M90.523438 91.480469 L93.257812 91.480469 C93.910156 91.480469 94.378906 91.394531 94.667969 91.222656 C94.960938 91.050781 95.109375 90.777344 95.109375 90.398438 C95.109375 90.03125 94.960938 89.761719 94.667969 89.589844 C94.378906 89.410156 93.902344 89.324219 93.25 89.324219 L90.523438 89.324219 Z"/>
    <!-- I -->
    <path d="M100.820312 96.390625 L100.820312 88.003906 L102.59375 88.003906 L102.59375 96.390625 Z"/>
    <!-- L -->
    <path d="M106.667969 96.390625 L106.667969 88.003906 L108.441406 88.003906 L108.441406 94.921875 L113.519531 94.921875 L113.519531 96.390625 Z"/>
    <!-- I -->
    <path d="M116.675781 96.390625 L116.675781 88.003906 L118.453125 88.003906 L118.453125 96.390625 Z"/>
    <!-- S -->
    <path d="M126.132812 96.503906 C125.59375 96.503906 125.070312 96.464844 124.558594 96.390625 C124.046875 96.316406 123.570312 96.207031 123.132812 96.054688 C122.703125 95.90625 122.316406 95.722656 121.984375 95.503906 L122.578125 94.15625 C122.953125 94.378906 123.332031 94.554688 123.710938 94.6875 C124.085938 94.824219 124.484375 94.921875 124.902344 94.980469 C125.316406 95.042969 125.757812 95.074219 126.226562 95.074219 C126.929688 95.074219 127.476562 94.988281 127.867188 94.8125 C128.253906 94.644531 128.453125 94.378906 128.453125 94.03125 C128.453125 93.804688 128.390625 93.628906 128.269531 93.515625 C128.152344 93.394531 127.976562 93.304688 127.75 93.246094 C127.527344 93.1875 127.257812 93.136719 126.941406 93.097656 L124.953125 92.832031 C124.019531 92.714844 123.320312 92.460938 122.867188 92.0625 C122.417969 91.664062 122.191406 91.136719 122.191406 90.480469 C122.191406 89.941406 122.363281 89.480469 122.703125 89.089844 C123.039062 88.703125 123.507812 88.402344 124.109375 88.199219 C124.714844 87.992188 125.417969 87.890625 126.21875 87.890625 C126.71875 87.890625 127.195312 87.929688 127.652344 88.003906 C128.105469 88.085938 128.523438 88.203125 128.902344 88.355469 C129.285156 88.511719 129.621094 88.703125 129.910156 88.929688 L129.308594 90.238281 C128.851562 89.917969 128.371094 89.683594 127.867188 89.539062 C127.367188 89.394531 126.789062 89.324219 126.132812 89.324219 C125.679688 89.324219 125.285156 89.363281 124.960938 89.449219 C124.628906 89.527344 124.378906 89.644531 124.210938 89.796875 C124.042969 89.953125 123.960938 90.144531 123.960938 90.371094 C123.960938 90.683594 124.078125 90.910156 124.316406 91.046875 C124.5625 91.1875 124.9375 91.296875 125.441406 91.371094 L127.308594 91.628906 C128.269531 91.761719 128.996094 92.011719 129.484375 92.390625 C129.976562 92.769531 130.226562 93.292969 130.226562 93.964844 C130.226562 94.488281 130.058594 94.9375 129.726562 95.324219 C129.398438 95.707031 128.925781 96 128.308594 96.207031 C127.695312 96.40625 126.972656 96.503906 126.132812 96.503906 Z"/>
  </g>
</svg>
