<svg width="12" height="12" viewBox="0 0 12 12" fill="none" xmlns="http://www.w3.org/2000/svg">
<g clip-path="url(#clip0_1495_59038)">
<path fill-rule="evenodd" clip-rule="evenodd" d="M2.56259 5.25003H11.2498C11.4488 5.25003 11.6395 5.32905 11.7802 5.4697C11.9208 5.61035 11.9998 5.80112 11.9998 6.00003C11.9998 6.19894 11.9208 6.38971 11.7802 6.53036C11.6395 6.67101 11.4488 6.75003 11.2498 6.75003H2.56259L6.00584 10.1933C6.14667 10.334 6.22583 10.5249 6.2259 10.724C6.22597 10.9231 6.14695 11.1141 6.00622 11.2549C5.86548 11.3957 5.67457 11.4749 5.47548 11.475C5.27639 11.475 5.08542 11.396 4.94459 11.2553L0.21959 6.53028C0.0789866 6.38963 0 6.1989 0 6.00003C0 5.80116 0.0789866 5.61043 0.21959 5.46978L4.94459 0.74478C5.08552 0.60405 5.27658 0.525067 5.47575 0.525208C5.67491 0.525348 5.86586 0.604601 6.00659 0.74553C6.14732 0.88646 6.2263 1.07752 6.22616 1.27669C6.22602 1.47585 6.14677 1.6668 6.00584 1.80753L2.56259 5.25003Z" fill="#D7D7D7"/>
</g>
<defs>
<clipPath id="clip0_1495_59038">
<rect width="12" height="12" fill="white"/>
</clipPath>
</defs>
</svg>
