<svg width="24" height="24" viewBox="0 0 24 24" fill="none" xmlns="http://www.w3.org/2000/svg">
<path d="M8 2V5" stroke="#460107" stroke-miterlimit="10" stroke-linecap="round" stroke-linejoin="round"/>
<path d="M16 2V5" stroke="#460107" stroke-miterlimit="10" stroke-linecap="round" stroke-linejoin="round"/>
<path d="M3.5 9.08984H20.5" stroke="#460107" stroke-miterlimit="10" stroke-linecap="round" stroke-linejoin="round"/>
<path d="M19.21 15.7702L15.6701 19.3102C15.5301 19.4502 15.4 19.7102 15.37 19.9002L15.18 21.2502C15.11 21.7402 15.45 22.0803 15.94 22.0103L17.29 21.8202C17.48 21.7902 17.75 21.6602 17.88 21.5202L21.4201 17.9803C22.0301 17.3703 22.3201 16.6603 21.4201 15.7603C20.5301 14.8703 19.82 15.1602 19.21 15.7702Z" stroke="#460107" stroke-miterlimit="10" stroke-linecap="round" stroke-linejoin="round"/>
<path d="M18.7002 16.2793C19.0002 17.3593 19.8402 18.1993 20.9202 18.4993" stroke="#460107" stroke-miterlimit="10" stroke-linecap="round" stroke-linejoin="round"/>
<path d="M12 22H8C4.5 22 3 20 3 17V8.5C3 5.5 4.5 3.5 8 3.5H16C19.5 3.5 21 5.5 21 8.5V12" stroke="#460107" stroke-miterlimit="10" stroke-linecap="round" stroke-linejoin="round"/>
<path d="M11.9951 13.6992H12.0041" stroke="#460107" stroke-linecap="round" stroke-linejoin="round"/>
<path d="M8.29395 13.6992H8.30293" stroke="#460107" stroke-linecap="round" stroke-linejoin="round"/>
<path d="M8.29395 16.6992H8.30293" stroke="#460107" stroke-linecap="round" stroke-linejoin="round"/>
</svg>
