<svg width="15" height="15" viewBox="0 0 15 15" fill="none" xmlns="http://www.w3.org/2000/svg">
<path d="M12.5189 9.70701C12.4754 9.75059 12.4237 9.78517 12.3668 9.80876C12.3099 9.83235 12.2489 9.84449 12.1873 9.84449C12.1257 9.84449 12.0647 9.83235 12.0078 9.80876C11.9509 9.78517 11.8992 9.75059 11.8556 9.70701L7.49977 5.35056L3.14391 9.70701C3.05596 9.79497 2.93666 9.84438 2.81227 9.84438C2.68788 9.84438 2.56859 9.79497 2.48063 9.70701C2.39268 9.61905 2.34326 9.49976 2.34326 9.37537C2.34326 9.25098 2.39268 9.13168 2.48063 9.04373L7.16813 4.35623C7.21167 4.31265 7.26336 4.27807 7.32027 4.25448C7.37717 4.23089 7.43817 4.21875 7.49977 4.21875C7.56137 4.21875 7.62237 4.23089 7.67928 4.25448C7.73618 4.27807 7.78788 4.31265 7.83141 4.35623L12.5189 9.04373C12.5625 9.08726 12.5971 9.13896 12.6207 9.19587C12.6442 9.25277 12.6564 9.31377 12.6564 9.37537C12.6564 9.43697 12.6442 9.49797 12.6207 9.55487C12.5971 9.61178 12.5625 9.66348 12.5189 9.70701Z" fill="#151515"/>
</svg>
