<svg width="15" height="15" viewBox="0 0 15 15" fill="none" xmlns="http://www.w3.org/2000/svg">
<path d="M12.5189 5.9569L7.83141 10.6444C7.78788 10.688 7.73618 10.7226 7.67928 10.7461C7.62237 10.7697 7.56137 10.7819 7.49977 10.7819C7.43817 10.7819 7.37717 10.7697 7.32027 10.7461C7.26336 10.7226 7.21167 10.688 7.16813 10.6444L2.48063 5.9569C2.39268 5.86894 2.34326 5.74965 2.34326 5.62526C2.34326 5.50087 2.39268 5.38158 2.48063 5.29362C2.56859 5.20566 2.68788 5.15625 2.81227 5.15625C2.93666 5.15625 3.05596 5.20566 3.14391 5.29362L7.49977 9.65007L11.8556 5.29362C11.8992 5.25007 11.9509 5.21552 12.0078 5.19195C12.0647 5.16838 12.1257 5.15625 12.1873 5.15625C12.2489 5.15625 12.3099 5.16838 12.3668 5.19195C12.4237 5.21552 12.4754 5.25007 12.5189 5.29362C12.5625 5.33717 12.597 5.38887 12.6206 5.44578C12.6442 5.50268 12.6563 5.56367 12.6563 5.62526C12.6563 5.68685 12.6442 5.74784 12.6206 5.80474C12.597 5.86165 12.5625 5.91335 12.5189 5.9569Z" fill="#151515"/>
</svg>
