<svg width="14" height="15" viewBox="0 0 14 15" fill="none" xmlns="http://www.w3.org/2000/svg">
<path d="M5.05859 8.85873C5.05859 9.61123 5.63609 10.2179 6.35361 10.2179H7.81777C8.44194 10.2179 8.94944 9.68706 8.94944 9.03373C8.94944 8.32206 8.64027 8.07123 8.17944 7.90789L5.82859 7.09123C5.36775 6.92789 5.05859 6.67706 5.05859 5.96542C5.05859 5.31208 5.56609 4.78125 6.19027 4.78125H7.65444C8.37194 4.78125 8.94944 5.38792 8.94944 6.14042" stroke="#151515" stroke-linecap="round" stroke-linejoin="round"/>
<path d="M7 4V11" stroke="#151515" stroke-linecap="round" stroke-linejoin="round"/>
<path d="M6.99935 13.3327C10.221 13.3327 12.8327 10.721 12.8327 7.49935C12.8327 4.27769 10.221 1.66602 6.99935 1.66602C3.77769 1.66602 1.16602 4.27769 1.16602 7.49935C1.16602 10.721 3.77769 13.3327 6.99935 13.3327Z" stroke="#151515" stroke-linecap="round" stroke-linejoin="round"/>
</svg>
