<svg width="18" height="18" viewBox="0 0 18 18" fill="none" xmlns="http://www.w3.org/2000/svg">
<path d="M6.50391 10.7464C6.50391 11.7139 7.24641 12.4939 8.16892 12.4939H10.0514C10.8539 12.4939 11.5064 11.8114 11.5064 10.9714C11.5064 10.0564 11.1089 9.73388 10.5164 9.52388L7.4939 8.47388C6.9014 8.26388 6.50391 7.94138 6.50391 7.02641C6.50391 6.18641 7.1564 5.50391 7.95892 5.50391H9.84142C10.7639 5.50391 11.5064 6.28391 11.5064 7.25141" stroke="white" stroke-linecap="round" stroke-linejoin="round"/>
<path d="M9 4.5V13.5" stroke="white" stroke-linecap="round" stroke-linejoin="round"/>
<path d="M9 16.5C13.1421 16.5 16.5 13.1421 16.5 9C16.5 4.85786 13.1421 1.5 9 1.5C4.85786 1.5 1.5 4.85786 1.5 9C1.5 13.1421 4.85786 16.5 9 16.5Z" stroke="white" stroke-linecap="round" stroke-linejoin="round"/>
</svg>
