<svg width="32" height="32" viewBox="0 0 32 32" fill="none" xmlns="http://www.w3.org/2000/svg">
<path d="M14.6667 5.33398H5.33341C4.62617 5.33398 3.94789 5.61494 3.4478 6.11503C2.9477 6.61513 2.66675 7.29341 2.66675 8.00065V26.6673C2.66675 27.3746 2.9477 28.0528 3.4478 28.5529C3.94789 29.053 4.62617 29.334 5.33341 29.334H24.0001C24.7073 29.334 25.3856 29.053 25.8857 28.5529C26.3858 28.0528 26.6667 27.3746 26.6667 26.6673V17.334" stroke="white" stroke-width="2" stroke-linecap="round" stroke-linejoin="round"/>
<path d="M24.6667 3.33429C25.1972 2.80385 25.9166 2.50586 26.6667 2.50586C27.4169 2.50586 28.1363 2.80385 28.6667 3.33429C29.1972 3.86472 29.4952 4.58414 29.4952 5.33429C29.4952 6.08443 29.1972 6.80385 28.6667 7.33429L16.0001 20.001L10.6667 21.3343L12.0001 16.001L24.6667 3.33429Z" stroke="white" stroke-width="2" stroke-linecap="round" stroke-linejoin="round"/>
</svg>
