<svg width="18" height="18" viewBox="0 0 18 18" fill="none" xmlns="http://www.w3.org/2000/svg">
<path d="M8.25 1.5H6.75C3 1.5 1.5 3 1.5 6.75V11.25C1.5 15 3 16.5 6.75 16.5H11.25C15 16.5 16.5 15 16.5 11.25V9.75" stroke="#151515" stroke-linecap="round" stroke-linejoin="round"/>
<path d="M12.0304 2.26592L6.1204 8.17591C5.8954 8.40091 5.6704 8.84341 5.6254 9.16591L5.3029 11.4234C5.1829 12.2409 5.7604 12.8109 6.5779 12.6984L8.8354 12.3759C9.1504 12.3309 9.5929 12.1059 9.8254 11.8809L15.7354 5.97092C16.7554 4.95092 17.2354 3.76592 15.7354 2.26592C14.2354 0.765922 13.0504 1.24592 12.0304 2.26592Z" stroke="#151515" stroke-miterlimit="10" stroke-linecap="round" stroke-linejoin="round"/>
<path d="M11.1826 3.11328C11.6851 4.90578 13.0876 6.30828 14.8876 6.81828" stroke="#151515" stroke-miterlimit="10" stroke-linecap="round" stroke-linejoin="round"/>
</svg>
