<svg width="20" height="20" viewBox="0 0 20 20" fill="none" xmlns="http://www.w3.org/2000/svg">
<path d="M11.4416 2.92422L12.9083 5.85755C13.1083 6.26589 13.6416 6.65755 14.0916 6.73255L16.7499 7.17422C18.4499 7.45755 18.8499 8.69088 17.6249 9.90754L15.5583 11.9742C15.2083 12.3242 15.0166 12.9992 15.1249 13.4825L15.7166 16.0409C16.1833 18.0659 15.1083 18.8492 13.3166 17.7909L10.8249 16.3159C10.3749 16.0492 9.63328 16.0492 9.17495 16.3159L6.68326 17.7909C4.89992 18.8492 3.81659 18.0575 4.28326 16.0409L4.87492 13.4825C4.98326 12.9992 4.79159 12.3242 4.44159 11.9742L2.37492 9.90754C1.15826 8.69088 1.54992 7.45755 3.24992 7.17422L5.90826 6.73255C6.34992 6.65755 6.88326 6.26589 7.08326 5.85755L8.54995 2.92422C9.34995 1.33255 10.6499 1.33255 11.4416 2.92422Z" stroke="#808080" stroke-linecap="round" stroke-linejoin="round"/>
</svg>
