<svg width="14" height="14" viewBox="0 0 14 14" fill="none" xmlns="http://www.w3.org/2000/svg">
<g clip-path="url(#clip0_116_7427)">
<path d="M13.2005 6.63808C13.0891 6.63808 12.9911 6.68927 12.9246 6.76824C12.9402 6.72777 12.9498 6.68424 12.9498 6.63808C12.9498 6.43814 12.7877 6.27583 12.5877 6.27583C12.5484 6.27583 12.5112 6.2837 12.4757 6.2953C12.352 5.323 11.9703 4.40154 11.3702 3.62655C11.4034 3.60992 11.4354 3.58892 11.4632 3.56114C11.5279 3.49257 11.5633 3.40146 11.562 3.30717C11.5606 3.21288 11.5225 3.12285 11.4558 3.0562C11.3891 2.98954 11.299 2.95153 11.2047 2.95024C11.1104 2.94894 11.0194 2.98447 10.9508 3.04927C10.9355 3.06497 10.9216 3.08203 10.9093 3.10024L10.8999 3.09083C10.9178 3.07858 10.9351 3.06502 10.9508 3.04927C11.0156 2.98075 11.0512 2.88968 11.0499 2.79538C11.0486 2.70109 11.0106 2.61102 10.9439 2.54431C10.8773 2.47761 10.7872 2.43952 10.6929 2.43814C10.5986 2.43677 10.5075 2.47222 10.439 2.53695C10.4122 2.56422 10.3901 2.59561 10.3733 2.62992C9.59831 2.02996 8.67686 1.64832 7.70459 1.52458C7.71698 1.48844 7.72355 1.45056 7.72406 1.41236C7.72406 1.21242 7.56197 1.05055 7.36203 1.05055C7.31609 1.05055 7.27234 1.05995 7.23166 1.0757C7.31062 1.0092 7.36203 0.910986 7.36203 0.799642C7.36372 0.75104 7.35561 0.702596 7.33817 0.657197C7.32074 0.611798 7.29435 0.570374 7.26056 0.535395C7.22678 0.500415 7.18629 0.472596 7.14153 0.453596C7.09676 0.434597 7.04863 0.424805 7 0.424805C6.95137 0.424805 6.90324 0.434597 6.85847 0.453596C6.8137 0.472596 6.77322 0.500415 6.73944 0.535395C6.70565 0.570374 6.67926 0.611798 6.66183 0.657197C6.64439 0.702596 6.63628 0.75104 6.63797 0.799642C6.63797 0.910986 6.68937 1.0092 6.76834 1.0757C6.72683 1.05927 6.68261 1.05074 6.63797 1.05055C6.43825 1.05055 6.27616 1.21242 6.27616 1.41236C6.27616 1.45174 6.28403 1.48892 6.29562 1.52458C5.32325 1.64831 4.40171 2.03004 3.62666 2.63014C3.60994 2.5958 3.58786 2.56434 3.56125 2.53695C3.49287 2.4712 3.40143 2.43489 3.30658 2.43583C3.21172 2.43677 3.12101 2.47487 3.05395 2.54197C2.98689 2.60906 2.94882 2.69978 2.94792 2.79464C2.94703 2.88949 2.98337 2.98092 3.04916 3.04927C3.06512 3.06502 3.08241 3.0788 3.10034 3.09105L3.09094 3.10045C3.07863 3.08213 3.06464 3.065 3.04916 3.04927C2.9805 2.98524 2.88968 2.95036 2.79581 2.95198C2.70195 2.95361 2.61238 2.99161 2.54599 3.05798C2.47959 3.12434 2.44155 3.21389 2.43989 3.30776C2.43822 3.40162 2.47306 3.49246 2.53706 3.56114C2.56506 3.58892 2.59678 3.6097 2.63003 3.62655C2.03 4.40156 1.64828 5.32301 1.52447 6.2953C1.48841 6.28289 1.4506 6.27632 1.41247 6.27583C1.21253 6.27583 1.05044 6.43814 1.05044 6.63808C1.05044 6.68402 1.05984 6.72755 1.07537 6.76802C1.04171 6.72755 0.999584 6.69494 0.951966 6.67249C0.904349 6.65005 0.852393 6.6383 0.79975 6.63808C0.599812 6.63808 0.437719 6.80039 0.4375 7.00011C0.4375 7.19983 0.599812 7.36214 0.799531 7.36214C0.910875 7.36214 1.00909 7.31095 1.07559 7.2322C1.05926 7.27352 1.05073 7.3175 1.05044 7.36192C1.05044 7.56186 1.21253 7.72395 1.41247 7.72395C1.45184 7.72395 1.48903 7.71608 1.52447 7.70449C1.64822 8.67683 2.03003 9.59831 2.63025 10.3732C2.59588 10.3901 2.56442 10.4123 2.53706 10.4391C2.50321 10.4726 2.47631 10.5126 2.45793 10.5566C2.43954 10.6006 2.43003 10.6478 2.42993 10.6954C2.42984 10.7431 2.43916 10.7903 2.45737 10.8344C2.47557 10.8785 2.5023 10.9185 2.53602 10.9522C2.56975 10.9859 2.60979 11.0126 2.65387 11.0308C2.69794 11.049 2.74517 11.0583 2.79285 11.0582C2.84053 11.0581 2.88772 11.0485 2.9317 11.0301C2.97568 11.0117 3.0156 10.9848 3.04916 10.951C3.06512 10.9352 3.07891 10.9177 3.09094 10.8998L3.10034 10.9092C3.08212 10.9216 3.06499 10.9356 3.04916 10.951C2.98127 11.0189 2.94314 11.1111 2.94314 11.2071C2.94314 11.3032 2.98127 11.3953 3.04916 11.4633C3.11714 11.531 3.20921 11.5691 3.3052 11.5691C3.40119 11.5691 3.49327 11.531 3.56125 11.4633C3.58798 11.4359 3.61014 11.4045 3.62687 11.3701C4.4019 11.9701 5.32333 12.3519 6.29562 12.4759C6.28322 12.5119 6.27664 12.5497 6.27616 12.5879C6.27616 12.7878 6.43825 12.9497 6.63797 12.9497C6.68391 12.9497 6.72744 12.9403 6.76791 12.925C6.68916 12.9912 6.63797 13.0895 6.63797 13.2006C6.63797 13.2966 6.67611 13.3887 6.744 13.4566C6.8119 13.5245 6.90398 13.5626 7 13.5626C7.09602 13.5626 7.1881 13.5245 7.25599 13.4566C7.32389 13.3887 7.36203 13.2966 7.36203 13.2006C7.36203 13.0895 7.31106 12.9912 7.23231 12.925C7.27278 12.9403 7.31631 12.9497 7.36203 12.9497C7.56197 12.9497 7.72406 12.7878 7.72406 12.5879C7.72406 12.5485 7.71619 12.5113 7.70459 12.4759C8.67696 12.3519 9.59847 11.9702 10.3736 11.3701C10.3904 11.4033 10.4112 11.435 10.439 11.4633C10.4744 11.4995 10.5171 11.5278 10.5642 11.5465C10.6113 11.5652 10.6618 11.5738 10.7125 11.5718C10.7631 11.5697 10.8128 11.5571 10.8582 11.5346C10.9036 11.5122 10.9439 11.4804 10.9763 11.4415C11.0087 11.4025 11.0326 11.3572 11.0464 11.3084C11.0602 11.2596 11.0636 11.2085 11.0564 11.1583C11.0492 11.1082 11.0315 11.0601 11.0046 11.0172C10.9776 10.9742 10.9419 10.9374 10.8999 10.9092C10.9029 10.9061 10.906 10.9033 10.9091 10.8998C10.9215 10.9177 10.9351 10.9352 10.9508 10.951C10.9845 10.9846 11.0244 11.0113 11.0683 11.0295C11.1122 11.0477 11.1593 11.0571 11.2068 11.0571C11.2544 11.0571 11.3015 11.0478 11.3454 11.0296C11.3894 11.0114 11.4293 10.9848 11.4629 10.9512C11.4966 10.9176 11.5233 10.8777 11.5415 10.8337C11.5597 10.7898 11.5691 10.7427 11.5691 10.6952C11.5691 10.6476 11.5598 10.6005 11.5416 10.5566C11.5234 10.5126 11.4968 10.4727 11.4632 10.4391C11.4358 10.4124 11.4044 10.3903 11.37 10.3737C11.97 9.59846 12.3518 8.6769 12.4757 7.70449C12.511 7.71608 12.5482 7.72395 12.5875 7.72395C12.7875 7.72395 12.9496 7.56186 12.9496 7.36214C12.9496 7.3162 12.9402 7.27267 12.9246 7.2322C12.9583 7.27268 13.0005 7.30528 13.0482 7.32773C13.0958 7.35018 13.1478 7.36192 13.2005 7.36214C13.2943 7.35888 13.3832 7.31931 13.4484 7.25177C13.5137 7.18423 13.5501 7.09401 13.5501 7.00011C13.5501 6.90622 13.5137 6.81599 13.4484 6.74845C13.3832 6.68091 13.2943 6.64134 13.2005 6.63808ZM7.51341 2.55752C8.34161 2.65215 9.12652 2.97771 9.77856 3.49705C9.74881 3.63136 8.47569 5.05236 8.35603 5.11886C8.06414 4.90808 7.72694 4.76858 7.37144 4.71155C7.33381 4.57986 7.43947 2.6728 7.51341 2.55752ZM6.48703 2.55752C6.56075 2.67258 6.66619 4.57964 6.62834 4.71155C6.27302 4.76872 5.93599 4.90821 5.64419 5.11886C5.52453 5.05236 4.25162 3.63136 4.22187 3.49705C4.87404 2.97792 5.65889 2.65239 6.48703 2.55752ZM3.49716 4.22199C3.63169 4.25152 5.05269 5.5242 5.11919 5.64408C4.9084 5.93597 4.76891 6.27317 4.71187 6.62867C4.57997 6.6663 2.67312 6.56064 2.55784 6.48736C2.6526 5.65917 2.97806 4.87423 3.49716 4.22199ZM3.49737 9.77802C2.97825 9.12593 2.65271 8.34115 2.55784 7.51308C2.67312 7.43936 4.57997 7.33392 4.71187 7.37155C4.76911 7.72686 4.90859 8.06387 5.11919 8.3557C5.05269 8.47558 3.63212 9.74805 3.49737 9.77802ZM6.48747 11.442C5.65914 11.3477 4.87409 11.0221 4.22209 10.5025C4.25206 10.368 5.52475 8.94764 5.64462 8.88114C5.93635 9.09175 6.27331 9.23117 6.62856 9.28823C6.66641 9.41992 6.56141 11.3265 6.48747 11.442ZM7 8.09364C6.85379 8.09775 6.70824 8.07249 6.57197 8.01937C6.43569 7.96625 6.31145 7.88634 6.20659 7.78437C6.10173 7.68239 6.01839 7.56043 5.96149 7.42568C5.90459 7.29094 5.87529 7.14615 5.87531 6.99989C5.87534 6.85362 5.9047 6.70885 5.96166 6.57412C6.01861 6.4394 6.10201 6.31747 6.2069 6.21554C6.3118 6.11361 6.43607 6.03374 6.57237 5.98068C6.70867 5.92761 6.85423 5.90241 7.00044 5.90658C7.2851 5.91469 7.55539 6.03349 7.75385 6.23772C7.95231 6.44196 8.06331 6.71554 8.06325 7.00032C8.06319 7.2851 7.95209 7.55864 7.75354 7.7628C7.555 7.96696 7.28467 8.08565 7 8.09364ZM7.51297 11.442C7.43903 11.3263 7.33403 9.42014 7.37166 9.28823C7.72699 9.2311 8.06403 9.09161 8.35581 8.88092C8.47569 8.94742 9.74837 10.3684 9.77812 10.503C9.12593 11.022 8.34107 11.3473 7.51297 11.442ZM10.5031 9.77802C10.3685 9.74827 8.94775 8.47558 8.88125 8.35548C9.09194 8.0637 9.23143 7.72666 9.28856 7.37133C9.42047 7.3337 11.3271 7.43936 11.4426 7.51286C11.3477 8.34098 11.0221 9.12582 10.5031 9.77802ZM9.28856 6.62867C9.23153 6.27317 9.09203 5.93597 8.88125 5.64408C8.94775 5.5242 10.3687 4.25152 10.5031 4.22155C11.0223 4.87383 11.3478 5.65884 11.4426 6.48714C11.3273 6.56064 9.42025 6.6663 9.28856 6.62867Z" fill="#163944"/>
</g>
<defs>
<clipPath id="clip0_116_7427">
<rect width="14" height="14" fill="white"/>
</clipPath>
</defs>
</svg>
