<svg width="48" height="48" viewBox="0 0 48 48" fill="none" xmlns="http://www.w3.org/2000/svg">
<g clip-path="url(#clip0_2719_26899)">
<path d="M24 28C30.0751 28 35 23.0751 35 17C35 10.9249 30.0751 6 24 6C17.9249 6 13 10.9249 13 17C13 23.0751 17.9249 28 24 28Z" stroke="#808080" stroke-width="1.5" stroke-linecap="round" stroke-linejoin="round"/>
<path d="M30.4653 25.8996L29.3928 24.826C29.2779 24.7106 29.1344 24.628 28.9769 24.5865L26.5214 23.9414C26.3033 23.884 26.114 23.7483 25.9897 23.5602C25.8654 23.3721 25.8148 23.1447 25.8476 22.9216L26.1203 21.0654C26.1435 20.9087 26.2069 20.7607 26.3043 20.6358C26.4017 20.5109 26.5298 20.4133 26.6761 20.3527L30.1651 18.902C30.3264 18.8351 30.5034 18.8156 30.6753 18.8459C30.8472 18.8761 31.0069 18.9548 31.1357 19.0728L33.9693 21.6635" stroke="#808080" stroke-width="1.5" stroke-linecap="round" stroke-linejoin="round"/>
<path d="M15.1172 23.4911L16.2539 22.7441C16.3797 22.6609 16.4831 22.5479 16.5549 22.4152C16.6267 22.2825 16.6646 22.1341 16.6652 21.9832L16.6893 17.8319C16.6905 17.652 16.7443 17.4763 16.844 17.3266L19.2433 13.7401C19.3121 13.638 19.4008 13.5508 19.5041 13.4836C19.6073 13.4165 19.7231 13.3709 19.8443 13.3496C19.9656 13.3282 20.09 13.3314 20.21 13.3592C20.3299 13.3869 20.4431 13.4385 20.5427 13.5109L22.8126 15.0005C23.0037 15.1382 23.2402 15.1976 23.4737 15.1667L27.0785 14.6785C27.3011 14.6487 27.505 14.5382 27.6515 14.368L30.1929 11.4083C30.3357 11.2426 30.4146 11.0313 30.4152 10.8125V8.0625" stroke="#808080" stroke-width="1.5" stroke-linecap="round" stroke-linejoin="round"/>
<path d="M11.9429 39.9709L18.9235 39.9709V35.2209C18.9234 34.2703 18.5462 33.3586 17.8748 32.6857L7.64188 22.4528C7.35197 22.1629 6.95877 22 6.54878 22C6.13879 22 5.74559 22.1629 5.45568 22.4528C5.22 22.6871 5.06615 22.9911 5.017 23.3198C4.96784 23.6485 5.02599 23.9842 5.18281 24.2772L11.9429 36.9074L11.9429 39.9709ZM11.9429 39.9709L11.9432 42.8823C11.9433 43.1202 12.0379 43.3484 12.2061 43.5166C12.3743 43.6848 12.6025 43.7794 12.8404 43.7795L18.0243 43.7818C18.2622 43.7818 18.4903 43.6872 18.6586 43.519C18.8268 43.3507 18.9214 43.1226 18.9214 42.8847V39.9734" stroke="#808080" stroke-width="1.5" stroke-linecap="round" stroke-linejoin="round"/>
<path d="M36.9806 39.9709L30 39.9709L30 35.2209C30.0001 34.2703 30.3772 33.3586 31.0487 32.6857L41.2816 22.4528C41.5715 22.1629 41.9647 22 42.3747 22C42.7847 22 43.1779 22.1629 43.4678 22.4528C43.7035 22.6871 43.8573 22.9911 43.9065 23.3198C43.9556 23.6485 43.8975 23.9842 43.7407 24.2772L36.9806 36.9074V39.9709ZM36.9806 39.9709L36.9802 42.8823C36.9802 43.1202 36.8856 43.3484 36.7174 43.5166C36.5491 43.6848 36.321 43.7794 36.0831 43.7795L30.8992 43.7818C30.6613 43.7818 30.4331 43.6872 30.2649 43.519C30.0966 43.3507 30.0021 43.1226 30.002 42.8847V39.9734" stroke="#808080" stroke-width="1.5" stroke-linecap="round" stroke-linejoin="round"/>
</g>
<defs>
<clipPath id="clip0_2719_26899">
<rect width="48" height="48" fill="white"/>
</clipPath>
</defs>
</svg>
