<svg width="24" height="26" viewBox="0 0 24 26" fill="none" xmlns="http://www.w3.org/2000/svg">
<path d="M12.4434 19.1367C12.5956 20.0458 13.083 22.045 13.8135 22.7725C13.6624 23.2234 13.0919 24.39 12.0127 25.4736V25.5C12.0083 25.4956 12.0044 25.4907 12 25.4863C11.9956 25.4907 11.9917 25.4956 11.9873 25.5V25.4736C10.9081 24.39 10.3375 23.2234 10.1865 22.7725C10.917 22.0451 11.4044 20.0459 11.5566 19.1367H12.4434ZM7.44629 18.2275C7.14188 18.8336 6.80684 20.1362 7.90234 20.5C8.9982 20.8635 9.57712 19.7429 9.72949 19.1367H10.6426C10.4902 20.6519 9.63811 23.4089 7.44629 22.3184C5.25413 21.2275 6.53288 19.1367 7.44629 18.2275ZM16.5537 18.2275C17.4671 19.1366 18.7459 21.2275 16.5537 22.3184C14.362 23.4086 13.5098 20.6519 13.3574 19.1367H14.2705C14.4229 19.7429 15.0018 20.8636 16.0977 20.5C17.1934 20.1363 16.8582 18.8336 16.5537 18.2275ZM14.7314 16.6826C15.2335 16.6826 15.6406 17.0897 15.6406 17.5918C15.6405 18.0938 15.2334 18.501 14.7314 18.501H9.24219C8.74022 18.5009 8.3331 18.0938 8.33301 17.5918C8.33301 17.0898 8.74016 16.6827 9.24219 16.6826H14.7314ZM0.137695 13.2285C1.23975 9.13713 9.72917 10.0464 11.0996 15.9551H9.27148C8.66239 15.1974 6.89609 13.6826 4.7041 13.6826C1.96408 13.6828 2.4213 17.3529 5.61816 16.4102C3.63942 17.3192 -0.841161 16.8636 0.137695 13.2285ZM12.9004 15.9551C14.2708 10.0463 22.7603 9.13711 23.8623 13.2285C24.8412 16.8635 20.3617 17.319 18.3828 16.4102C21.5795 17.3526 22.036 13.6826 19.2959 13.6826C17.1038 13.6826 15.3375 15.1975 14.7285 15.9551H12.9004ZM12.0127 0.542969C12.9359 2.08167 14.8215 5.61094 15.1836 7.77246C15.6403 10.4997 14.2708 10.9547 13.3574 12.3184C12.662 13.3565 12.1882 15.026 12.0127 15.8379V15.9541C12.0089 15.9352 12.0042 15.9157 12 15.8955C11.9958 15.9157 11.9911 15.9352 11.9873 15.9541V15.8379C11.8118 15.026 11.338 13.3565 10.6426 12.3184C9.72917 10.9548 8.35971 10.4997 8.81641 7.77246C9.17848 5.61099 11.0641 2.08173 11.9873 0.542969V0.5C11.9916 0.507078 11.9957 0.514317 12 0.521484C12.0043 0.514317 12.0084 0.507078 12.0127 0.5V0.542969Z" fill="#460107"/>
</svg>
