<svg width="20" height="20" viewBox="0 0 20 20" fill="none" xmlns="http://www.w3.org/2000/svg">
<path d="M18.3333 10.8327V7.49935C18.3333 3.33268 16.6666 1.66602 12.5 1.66602H7.49996C3.33329 1.66602 1.66663 3.33268 1.66663 7.49935V12.4993C1.66663 16.666 3.33329 18.3327 7.49996 18.3327H10.8333" stroke="#808080" stroke-linecap="round" stroke-linejoin="round"/>
<path d="M18.3333 10.8327V7.49935C18.3333 3.33268 16.6666 1.66602 12.5 1.66602H7.49996C3.33329 1.66602 1.66663 3.33268 1.66663 7.49935V12.4993C1.66663 16.666 3.33329 18.3327 7.49996 18.3327H10.8333" stroke="#808080" stroke-linecap="round" stroke-linejoin="round"/>
<path d="M18.3333 10.8327V7.49935C18.3333 3.33268 16.6666 1.66602 12.5 1.66602H7.49996C3.33329 1.66602 1.66663 3.33268 1.66663 7.49935V12.4993C1.66663 16.666 3.33329 18.3327 7.49996 18.3327H10.8333" stroke="#808080" stroke-linecap="round" stroke-linejoin="round"/>
<path d="M13.3334 16.191L14.65 17.4993L17.5 14.166" stroke="#808080" stroke-linecap="round" stroke-linejoin="round"/>
<path d="M5.83337 8.75V11.25" stroke="#808080" stroke-linecap="round" stroke-linejoin="round"/>
<path d="M10 8.75V11.25" stroke="#808080" stroke-linecap="round" stroke-linejoin="round"/>
<path d="M14.1666 8.75V11.25" stroke="#808080" stroke-linecap="round" stroke-linejoin="round"/>
</svg>
