<svg width="80" height="103" viewBox="0 0 80 103" fill="none" xmlns="http://www.w3.org/2000/svg">
<g clip-path="url(#clip0_2996_92306)">
<path d="M19.5027 9.04289C19.5027 9.04289 18.4291 3.29743 13.8867 2.73887C9.34116 2.1803 10.0096 8.75908 13.7891 6.81447C13.7891 6.81447 12.5766 5.63526 13.792 4.37323C15.0075 3.11426 17.6691 5.76818 16.8706 9.98854C16.0751 14.209 14.2061 15.1429 14.2061 15.1429C14.2061 15.1429 14.144 13.3992 12.3991 13.1243C12.3991 13.1243 13.2952 14.9744 12.3577 16.6177C11.4202 18.2608 9.75817 19.1209 9.61322 22.6585C9.46841 26.1992 13.8807 26.6868 13.9162 22.1649C13.9162 22.1649 16.9476 22.1029 16.77 26.6425C16.5897 31.1791 13.0408 33.4844 11.1097 33.3365C9.18144 33.1918 8.57824 32.4263 9.02772 31.3209L9.49796 31.4954C9.49796 31.4954 9.62214 30.0442 7.75008 30.0353C5.8751 30.0265 5.02047 35.0654 11.2428 34.1995C11.2428 34.1995 7.24737 35.8723 5.09447 33.1947C2.94144 30.517 4.91399 28.0375 6.43998 28.9152C6.43998 28.9152 6.96932 26.8494 4.31664 26.5479C1.66688 26.2495 -0.775907 33.7296 4.62131 35.6152C9.285 37.2436 10.9973 35.6241 11.3759 35.1541C11.1274 35.5384 10.4946 36.821 11.8372 38.4406C11.8372 38.4406 11.6479 36.4427 13.0497 35.2309C14.4515 34.0222 16.2614 32.5327 17.1693 29.8018C18.0772 27.0711 18.1246 24.154 17.0747 22.0852C16.0219 20.0135 13.4017 18.9081 11.843 20.0283C11.843 20.0283 11.9289 18.3642 14.6023 16.6325C17.2729 14.8976 17.7548 12.5332 17.7548 12.5332C17.7548 12.5332 18.364 15.5004 16.2554 17.8412C16.2554 17.8412 18.509 16.8156 20.8334 11.883C23.1254 7.01838 29.2412 12.551 29.4187 12.7134C29.2945 12.5273 24.2196 5.05303 19.5027 9.04289ZM14.4456 3.59307C14.1321 3.53099 13.8157 3.51318 13.5081 3.54282C13.2035 3.58416 12.9077 3.66392 12.6446 3.80881C12.1211 4.09847 11.7336 4.60386 11.6687 5.22437C11.6302 5.53184 11.6332 5.84808 11.8047 6.07857C11.9703 6.31798 12.3074 6.44506 12.6504 6.47457C12.3193 6.57214 11.9081 6.54555 11.5947 6.27358C11.2812 5.99576 11.2043 5.56135 11.2103 5.19486C11.2043 4.82253 11.3108 4.42055 11.5178 4.08956C11.7249 3.75564 12.0235 3.48659 12.3607 3.28866C12.7066 3.11134 13.0851 3.01377 13.4638 2.98426C13.6531 2.9901 13.8423 2.9812 14.0256 3.01961C14.1173 3.03451 14.212 3.04035 14.3007 3.06694L14.5668 3.14683C15.2677 3.37427 15.8534 3.82942 16.2881 4.37323C15.6906 4.01273 15.0814 3.71124 14.4456 3.59307ZM7.86841 33.576C7.61405 33.446 7.40416 33.239 7.21182 33.0203C7.03747 32.7869 6.8896 32.5238 6.82158 32.2371C6.7742 32.0953 6.76528 31.9474 6.74757 31.8027C6.74757 31.6519 6.74172 31.5041 6.7742 31.3564C6.83329 31.0668 6.925 30.7535 7.2089 30.5288C7.24737 30.5022 7.28291 30.4727 7.31831 30.452L7.42771 30.4048C7.49573 30.3693 7.58158 30.3515 7.65852 30.3397C7.8181 30.3161 7.98381 30.3427 8.12569 30.3988C8.40374 30.523 8.59301 30.7416 8.70242 30.984C8.49545 30.8245 8.26465 30.6974 8.04583 30.6766C7.83594 30.6471 7.6319 30.7446 7.51064 30.8747C7.41001 31.0018 7.33907 31.2146 7.32723 31.4304C7.30646 31.6461 7.33015 31.8706 7.39231 32.0834C7.50465 32.5149 7.759 32.9021 8.12569 33.1947C8.49238 33.4931 8.95078 33.6971 9.44765 33.8862C8.92416 33.9424 8.36235 33.8567 7.86841 33.576ZM3.43831 28.6049C3.27273 28.9004 3.12779 29.2078 3.01545 29.53C2.79064 30.1683 2.67231 30.8451 2.68123 31.5307C2.68709 32.2165 2.83204 32.9021 3.05684 33.5967C2.59845 33.0292 2.29671 32.317 2.20207 31.5662C2.10451 30.8156 2.19915 30.0383 2.46827 29.329C2.60138 28.9744 2.77294 28.6315 2.99176 28.3211C3.21057 28.0078 3.46493 27.7153 3.8227 27.4995C4.16291 27.2956 4.60054 27.21 4.97907 27.3222C5.35761 27.4257 5.66813 27.665 5.88695 27.9517C5.60012 27.7331 5.2659 27.5853 4.93475 27.5557C4.60346 27.5292 4.29294 27.6326 4.04165 27.8336C3.79914 28.0227 3.60988 28.3182 3.43831 28.6049ZM12.0354 24.1805C12.1092 24.154 12.1773 24.1186 12.2542 24.0919L12.4582 23.9766C12.9817 23.6043 13.2715 22.8979 13.3987 22.1739C13.4607 22.5433 13.4401 22.9276 13.3484 23.3057C13.2479 23.6753 13.0616 24.0535 12.7451 24.3344C12.6652 24.3994 12.5795 24.4644 12.4938 24.5234C12.4021 24.5736 12.3074 24.6239 12.2099 24.6653L11.9112 24.7598C11.7987 24.7835 11.6835 24.7983 11.5651 24.7953C11.3226 24.7894 11.0772 24.683 10.8967 24.5323C10.7164 24.3846 10.5833 24.2013 10.4857 24.0121C10.1278 23.2467 10.1278 22.4398 10.2727 21.6892C10.4206 20.9415 10.7577 20.2085 11.3137 19.7002C10.9589 20.3563 10.7873 21.0538 10.7282 21.7542C10.7074 22.1029 10.7016 22.4546 10.7488 22.7945C10.7873 23.1315 10.8672 23.4654 11.0121 23.7432C11.1511 24.024 11.3551 24.219 11.6036 24.2368C11.6656 24.2457 11.7336 24.2426 11.8047 24.2339L12.0354 24.1805ZM13.792 15.9142L13.6531 15.3173C13.6028 15.1223 13.5584 14.93 13.4934 14.7469C13.4341 14.5637 13.3603 14.3893 13.2715 14.2178C13.1768 14.0494 13.0645 13.8957 12.9225 13.7331C13.1267 13.7892 13.3159 13.9194 13.4607 14.0849C13.6028 14.2533 13.7033 14.4514 13.7743 14.6553C13.8393 14.8621 13.8748 15.0749 13.8807 15.2878C13.8837 15.5004 13.863 15.7132 13.792 15.9142ZM17.5863 10.5147C17.4651 11.1648 17.2669 11.8002 16.9919 12.4032C16.7168 13.0062 16.3382 13.5587 15.8888 14.0346C16.0514 13.745 16.2525 13.4937 16.3827 13.1923C16.4536 13.0475 16.5394 12.9115 16.5986 12.7608L16.7849 12.3145C17.0008 11.7086 17.1841 11.094 17.2964 10.4586C17.4148 9.8261 17.4828 9.18472 17.5242 8.54041C17.5449 8.21541 17.5537 7.89318 17.5508 7.56804C17.5597 7.24303 17.5449 6.91788 17.5302 6.58981C17.6839 7.22827 17.7371 7.88734 17.749 8.54333C17.7608 9.2024 17.7016 9.86146 17.5863 10.5147ZM23.1934 9.29106C22.8061 9.32948 22.4305 9.40046 22.0844 9.54828C21.7414 9.69596 21.4279 9.89987 21.1587 10.1629C20.8779 10.4142 20.6589 10.7304 20.4697 11.0643C20.375 11.2329 20.2893 11.4072 20.2184 11.5875C20.1474 11.7649 20.0676 11.9776 19.9788 12.1638C19.6269 12.9293 19.1596 13.6386 18.5711 14.2267C18.9615 13.4967 19.2956 12.7549 19.5499 11.9954C19.618 11.8002 19.6594 11.62 19.7334 11.4131C19.7984 11.2063 19.8812 11.0023 19.9759 10.8072C20.171 10.4171 20.4253 10.0477 20.7477 9.73744C21.0759 9.43303 21.4605 9.18764 21.8804 9.02507C22.3062 8.88323 22.7469 8.81239 23.1846 8.83006C24.057 8.85665 24.8673 9.16704 25.5801 9.58962C24.7727 9.39462 23.9713 9.23204 23.1934 9.29106Z" fill="#151515"/>
<path d="M8.85897 15.8932C8.85897 15.8932 7.80922 13.9752 6.1826 15.4618C4.55904 16.9483 7.25912 20.7166 7.25912 20.7166C7.25912 20.7166 5.46399 21.1865 4.06511 19.3806C4.06511 19.3806 3.36128 24.6414 8.41842 26.3969C8.32964 26.3142 6.70901 24.7536 7.29452 21.68L7.83278 22.4041C7.83278 22.4041 8.88267 21.2604 8.19946 19.7324C7.51347 18.2014 8.07235 16.2006 8.85897 15.8932ZM6.01995 24.3074C5.73898 23.9941 5.50831 23.6365 5.31905 23.2612C4.96128 22.5017 4.74539 21.6741 4.74539 20.8436C4.8548 21.2426 4.98483 21.6298 5.11793 22.0139C5.25689 22.3952 5.40783 22.7706 5.58525 23.1311C5.76267 23.4917 5.96671 23.8345 6.2003 24.1597C6.44281 24.4818 6.71487 24.7744 7.03138 25.0462C6.65577 24.8719 6.30678 24.6207 6.01995 24.3074ZM7.70274 15.4913C7.52518 15.4618 7.33006 15.5209 7.15556 15.5918C6.81842 15.7337 6.59361 16.0676 6.47542 16.4252C6.35417 16.7859 6.3334 17.1819 6.36894 17.5749C6.40741 17.968 6.5079 18.3611 6.64393 18.7512C6.40434 18.4142 6.22107 18.0272 6.1412 17.6104C6.05549 17.1937 6.05842 16.7504 6.19737 16.3307C6.33633 15.9229 6.62622 15.5091 7.07863 15.376C7.28866 15.3139 7.5164 15.2755 7.73814 15.3524C7.96002 15.4263 8.11082 15.648 8.10483 15.8548C8.03988 15.6569 7.88309 15.5062 7.70274 15.4913Z" fill="#151515"/>
<path d="M33.9936 64.0378C31.0363 62.6753 27.2745 59.445 26.3637 57.0718C26.3637 57.0718 26.4405 61.8684 29.8 63.8368C29.8 63.8368 26.4288 64.0347 24.95 62.1699C24.95 62.1699 24.8997 64.7706 27.8304 65.9056C30.7582 67.0434 33.689 64.9745 37.983 68.5831C37.983 68.5831 36.9481 65.4002 33.9936 64.0378ZM33.825 65.4917C33.1952 65.2702 32.5446 65.1342 31.8761 65.1134C31.2078 65.0899 30.5305 65.1402 29.8504 65.1431C29.5132 65.1489 29.1702 65.1578 28.8212 65.1223C28.4752 65.0868 28.1351 64.9953 27.8187 64.8593C27.1858 64.5815 26.6357 64.1146 26.2957 63.5235C26.689 64.0762 27.2449 64.5046 27.8689 64.7293C28.1823 64.8416 28.5078 64.9214 28.8389 64.9392C29.1672 64.9598 29.5043 64.9392 29.8414 64.9214C30.5188 64.8829 31.196 64.8327 31.8851 64.8474C32.2014 64.8534 32.5209 64.8829 32.8373 64.9392C32.5386 64.7618 32.2458 64.5756 31.956 64.3864C31.3586 63.9905 30.7701 63.5796 30.226 63.1097C29.6819 62.6427 29.1524 62.1551 28.697 61.5965C28.2504 61.038 27.8452 60.4292 27.6235 59.7494C27.9074 60.4026 28.3302 60.9788 28.8094 61.499C29.2767 62.0309 29.8179 62.4921 30.3709 62.9294C30.9298 63.3669 31.5035 63.7806 32.1039 64.1589C32.6924 64.5372 33.3016 64.8889 33.9196 65.2139C33.9256 65.217 33.9345 65.2199 33.9404 65.2228L33.825 65.4917Z" fill="#151515"/>
<path d="M13.9248 37.9441C13.9248 37.9441 17.2519 35.8222 17.7931 32.8047C17.7931 32.8047 18.7128 38.6742 13.9248 37.9441Z" fill="#151515"/>
<path d="M59.773 63.6651C65.2056 64.7438 66.0219 57.6359 63.2301 57.2369C63.2301 57.2369 61.1806 56.5512 60.2668 58.7412C60.2668 58.7412 58.6846 56.9769 59.4891 54.784C60.2934 52.591 62.1478 53.1496 62.1478 53.1496C62.1478 53.1496 62.2187 51.0956 60.116 51.6866C60.116 51.6866 61.3847 48.9764 63.6234 48.6573C65.8593 48.3352 65.9302 49.9606 65.9302 49.9606C65.9302 49.9606 65.9036 50.7173 65.0903 50.2916C65.0903 50.2916 65.1701 51.8936 66.5689 51.6542C67.9678 51.4147 68.6095 49.0327 66.7316 47.7795C66.7316 47.7795 69.7008 48.4002 69.4435 51.9467C69.4435 51.9467 68.8875 53.6343 67.4266 52.6324C67.4266 52.6324 66.5808 55.2065 69.0945 55.2125C71.6113 55.2184 72.1465 48.6101 68.2162 47.1826C64.3805 45.7935 62.0147 48.0279 61.9022 48.1371C61.9851 48.016 63.8926 45.3117 67.9383 45.229C69.4878 45.1935 70.9872 45.7403 72.114 46.8427C72.812 47.5283 73.3946 48.4357 73.291 49.5084C74.9678 48.2081 75.0152 45.5216 75.0152 45.5216C78.2594 45.6605 79.9954 41.8717 79.9954 41.8717C76.7689 44.5079 74.3172 43.3523 71.8744 42.4421C69.4346 41.5318 67.2491 43.2045 67.2491 43.2045C67.2491 43.2045 67.9204 38.8187 63.3957 39.5575C63.3957 39.5575 65.1997 39.8087 64.6496 42.1169C64.0966 44.4281 60.0598 47.1086 58.9005 49.8601C57.7412 52.6087 55.3577 59.1225 61.0771 61.7381C61.0771 61.7381 56.4785 62.5922 56.3158 57.1305C56.3158 57.1305 54.3402 62.5833 59.773 63.6651ZM70.8601 45.0191C71.0286 45.0841 71.1972 45.1551 71.3628 45.229C71.5255 45.3088 71.6912 45.3916 71.8508 45.4772C72.1643 45.6664 72.4718 45.8703 72.7469 46.1186C73.0248 46.3638 73.2792 46.6387 73.4803 46.9579C73.5808 47.1176 73.6725 47.2831 73.7405 47.4604C73.7761 47.549 73.8085 47.6377 73.8351 47.7293C74.0126 47.487 74.125 47.1796 74.2078 46.8692C74.3143 46.4585 74.3734 46.0329 74.4029 45.5984C74.4356 45.8142 74.4443 46.0329 74.4443 46.2515C74.4474 46.4703 74.4296 46.689 74.3971 46.9077C74.3262 47.3391 74.1901 47.7943 73.8382 48.14L73.6459 48.3323L73.6074 48.0397C73.5691 47.7353 73.4123 47.4012 73.2349 47.1146C73.0515 46.8219 72.8179 46.5559 72.5695 46.3078C72.321 46.0565 72.04 45.8408 71.7592 45.6221L71.3185 45.3117C71.1648 45.2172 71.0109 45.1226 70.8601 45.0191ZM69.6298 53.7761C69.8724 53.4569 70.0527 53.058 70.1977 52.6471C70.3455 52.2304 70.4431 51.7989 70.5082 51.3261C70.6885 51.7694 70.7211 52.2748 70.6471 52.7536C70.5702 53.2353 70.4165 53.7171 70.1001 54.1337C69.9404 54.3377 69.7451 54.5416 69.4701 54.6569C69.3341 54.71 69.1862 54.7543 69.0325 54.7514C68.9556 54.7574 68.8876 54.7514 68.8225 54.7396C68.7574 54.7308 68.6894 54.7159 68.6243 54.6924C68.3611 54.6185 68.1126 54.4499 67.9766 54.2194C67.8347 53.9918 67.7873 53.7347 67.8229 53.4983C67.9146 53.7171 68.0358 53.9092 68.1985 54.0333C68.3493 54.1692 68.5327 54.2223 68.722 54.2431C68.7663 54.252 68.8166 54.252 68.8668 54.246C68.9142 54.2491 68.9614 54.2491 68.9999 54.2372C69.0797 54.2283 69.1537 54.1928 69.2276 54.1544C69.3755 54.0776 69.5086 53.9328 69.6298 53.7761ZM66.1282 51.0572C66.3974 51.1014 66.6251 51.0069 66.8085 50.8148C66.9859 50.6257 67.119 50.3833 67.2137 50.1261C67.3054 49.869 67.3645 49.5941 67.3645 49.3076C67.4533 49.5823 67.4502 49.8898 67.3793 50.1764C67.3112 50.466 67.1781 50.7409 66.9682 50.9714C66.8558 51.0778 66.7227 51.1724 66.566 51.2256C66.4092 51.2758 66.2407 51.2611 66.0958 51.2256C65.945 51.1901 65.7971 51.1133 65.6965 50.9922C65.6018 50.8709 65.5457 50.7202 65.5517 50.5754C65.6315 50.8591 65.874 51.0306 66.1282 51.0572ZM58.4658 52.656C58.5338 52.3575 58.5929 52.0531 58.6817 51.7576C58.7882 51.4679 58.868 51.1695 58.9951 50.8857C59.2466 50.3213 59.5363 49.7715 59.8764 49.2543C60.5478 48.214 61.3728 47.286 62.2158 46.3904C63.0675 45.5038 63.9812 44.6705 64.7206 43.7158C65.0725 43.24 65.3535 42.6873 65.5221 42.108C65.6107 41.8214 65.664 41.5199 65.6581 41.2184C65.6463 40.92 65.5871 40.6096 65.3978 40.3615C65.6108 40.589 65.7025 40.9053 65.7349 41.2126C65.7645 41.5259 65.732 41.842 65.6611 42.1435C65.5161 42.7523 65.2559 43.3258 64.904 43.8488C64.5521 44.369 64.1203 44.8123 63.7033 45.2645L62.4286 46.5945C61.574 47.4693 60.7636 48.3854 60.0657 49.3813C59.3648 50.3774 58.794 51.4708 58.4658 52.656ZM58.6166 62.6248C59.5837 62.8256 60.5685 62.8818 61.4142 62.6159C61.8312 62.4799 62.2039 62.2641 62.5174 61.9834C62.6563 61.8208 62.816 61.6819 62.9284 61.4927C63.0615 61.3272 63.1592 61.1263 63.2626 60.9312C63.446 60.5382 63.5791 60.1273 63.5968 59.7136C63.6057 59.3087 63.5111 58.9038 63.2715 58.6053C63.0319 58.3127 62.6505 58.1324 62.2187 58.1619C61.778 58.1798 61.3374 58.3895 60.9086 58.6437C61.2073 58.2477 61.6095 57.893 62.1418 57.7335L62.3458 57.6833C62.4138 57.6684 62.4849 57.6744 62.5558 57.6684L62.7747 57.6655L62.9905 57.7068C63.2834 57.7601 63.5465 57.9314 63.7742 58.1266C64.2268 58.5373 64.413 59.1462 64.4367 59.7107C64.4515 60.2869 64.2888 60.8278 64.0611 61.3183C63.8246 61.8001 63.4903 62.2523 63.0675 62.6159C62.6297 62.9645 62.1064 63.201 61.571 63.2867C60.4974 63.467 59.4506 63.1626 58.6166 62.6248Z" fill="#151515"/>
<path d="M50.5815 12.7134C50.759 12.551 56.8748 7.01838 59.1668 11.883C61.4912 16.8156 63.7447 17.8412 63.7447 17.8412C61.6362 15.5004 62.2454 12.5332 62.2454 12.5332C62.2454 12.5332 62.7275 14.8976 65.3978 16.6325C68.0713 18.3642 68.1571 20.0283 68.1571 20.0283C66.5985 18.9081 63.9783 20.0135 62.9255 22.0852C61.8756 24.154 61.923 27.0711 62.8309 29.8018C63.7388 32.5327 65.5487 34.0222 66.9505 35.2309C68.3523 36.4427 68.163 38.4406 68.163 38.4406C69.5057 36.821 68.8728 35.5384 68.6243 35.1541C69.0029 35.6241 70.7152 37.2436 75.379 35.6152C80.7761 33.7296 78.3333 26.2495 75.6836 26.5479C73.0309 26.8494 73.5602 28.9152 73.5602 28.9152C75.0862 28.0375 77.0588 30.517 74.9059 33.1947C72.7528 35.8723 68.7574 34.1995 68.7574 34.1995C74.9797 35.0654 74.1251 30.0265 72.2501 30.0353C70.3781 30.0442 70.5022 31.4954 70.5022 31.4954L70.9725 31.3209C71.4221 32.4263 70.8188 33.1918 68.8905 33.3365C66.9594 33.4844 63.4105 31.1791 63.2302 26.6425C63.0528 22.1029 66.084 22.1649 66.084 22.1649C66.1195 26.6868 70.5319 26.1992 70.387 22.6585C70.242 19.1209 68.58 18.2608 67.6426 16.6177C66.705 14.9744 67.6012 13.1243 67.6012 13.1243C65.8562 13.3992 65.7942 15.1429 65.7942 15.1429C65.7942 15.1429 63.9251 14.209 63.1296 9.98854C62.3311 5.76818 64.9927 3.11426 66.2082 4.37323C67.4236 5.63526 66.2112 6.81447 66.2112 6.81447C69.9907 8.75908 70.659 2.1803 66.1135 2.73887C61.5711 3.29743 60.4975 9.04289 60.4975 9.04289C55.7806 5.05303 50.7057 12.5273 50.5815 12.7134ZM63.7121 4.37323C64.147 3.82942 64.7325 3.37427 65.4334 3.14683L65.6996 3.06694C65.7882 3.04035 65.8829 3.03451 65.9746 3.01961C66.158 2.9812 66.3473 2.9901 66.5365 2.98426C66.9151 3.01377 67.2936 3.11134 67.6395 3.28866C67.9767 3.48659 68.2753 3.75564 68.4825 4.08956C68.6894 4.42055 68.7959 4.82253 68.79 5.19486C68.7959 5.56135 68.719 5.99576 68.4055 6.27358C68.0921 6.54555 67.6809 6.57214 67.3498 6.47457C67.6928 6.44506 68.0299 6.31798 68.1956 6.07857C68.367 5.84808 68.37 5.53184 68.3316 5.22437C68.2666 4.60386 67.8791 4.09847 67.3556 3.80881C67.0925 3.66392 66.7967 3.58416 66.4921 3.54282C66.1846 3.51318 65.8681 3.53099 65.5546 3.59307C64.9188 3.71124 64.3096 4.01273 63.7121 4.37323ZM70.5526 33.8862C71.0494 33.6971 71.5078 33.4931 71.8745 33.1947C72.2412 32.9021 72.4955 32.5149 72.6079 32.0834C72.67 31.8706 72.6937 31.6461 72.673 31.4304C72.6611 31.2146 72.5902 31.0018 72.4897 30.8747C72.3684 30.7446 72.1644 30.6471 71.9544 30.6766C71.7355 30.6974 71.5049 30.8245 71.2978 30.984C71.4072 30.7416 71.5965 30.523 71.8745 30.3988C72.0165 30.3427 72.1821 30.3161 72.3418 30.3397C72.4186 30.3515 72.5045 30.3693 72.5725 30.4048L72.6819 30.452C72.7173 30.4727 72.7528 30.5022 72.7913 30.5288C73.0752 30.7535 73.1669 31.0668 73.226 31.3564C73.2586 31.5041 73.2526 31.6519 73.2526 31.8027C73.2349 31.9474 73.226 32.0953 73.1788 32.2371C73.1107 32.5238 72.9629 32.7869 72.7884 33.0203C72.5962 33.239 72.3861 33.446 72.1318 33.576C71.638 33.8567 71.076 33.9424 70.5526 33.8862ZM75.9587 27.8336C75.7073 27.6326 75.3967 27.5292 75.0654 27.5557C74.7343 27.5853 74.4001 27.7331 74.1133 27.9517C74.3321 27.665 74.6426 27.4257 75.0211 27.3222C75.3997 27.21 75.8374 27.2956 76.1775 27.4995C76.5353 27.7153 76.7896 28.0078 77.0084 28.3211C77.2274 28.6315 77.3988 28.9744 77.5319 29.329C77.8011 30.0383 77.8957 30.8156 77.7981 31.5662C77.7035 32.317 77.4017 33.0292 76.9435 33.5967C77.1682 32.9021 77.3131 32.2165 77.319 31.5307C77.3279 30.8451 77.2096 30.1683 76.9849 29.53C76.8724 29.2078 76.7276 28.9004 76.5619 28.6049C76.3905 28.3182 76.2012 28.0227 75.9587 27.8336ZM68.1956 24.2339C68.2666 24.2426 68.3346 24.2457 68.3966 24.2368C68.6451 24.219 68.8491 24.024 68.9881 23.7432C69.133 23.4654 69.2129 23.1315 69.2514 22.7945C69.2986 22.4546 69.2928 22.1029 69.272 21.7542C69.2129 21.0538 69.0413 20.3563 68.6865 19.7002C69.2424 20.2085 69.5796 20.9415 69.7275 21.6892C69.8724 22.4398 69.8724 23.2467 69.5145 24.0121C69.4169 24.2013 69.2838 24.3846 69.1035 24.5323C68.923 24.683 68.6776 24.7894 68.4351 24.7953C68.3169 24.7983 68.2015 24.7835 68.0891 24.7598L67.7905 24.6653C67.6928 24.6239 67.5981 24.5736 67.5066 24.5234C67.4207 24.4644 67.335 24.3994 67.2551 24.3344C66.9386 24.0535 66.7524 23.6753 66.6518 23.3057C66.5601 22.9276 66.5394 22.5433 66.6015 22.1739C66.7287 22.8979 67.0185 23.6043 67.542 23.9766L67.746 24.0919C67.8229 24.1186 67.8909 24.154 67.9648 24.1805L68.1956 24.2339ZM66.1195 15.2878C66.1254 15.0749 66.1609 14.8621 66.226 14.6553C66.2969 14.4514 66.3974 14.2533 66.5394 14.0849C66.6844 13.9194 66.8737 13.7892 67.0777 13.7331C66.9357 13.8957 66.8234 14.0494 66.7287 14.2178C66.6399 14.3893 66.5661 14.5637 66.5068 14.7469C66.4419 14.93 66.3974 15.1223 66.3473 15.3173L66.2082 15.9142C66.1372 15.7132 66.1166 15.5004 66.1195 15.2878ZM62.2512 8.54333C62.2631 7.88734 62.3163 7.22827 62.47 6.58981C62.4553 6.91788 62.4405 7.24303 62.4494 7.56804C62.4465 7.89318 62.4553 8.21541 62.476 8.54041C62.5174 9.18472 62.5854 9.8261 62.7038 10.4586C62.8161 11.094 62.9995 11.7086 63.2154 12.3145L63.4016 12.7608C63.4608 12.9115 63.5466 13.0475 63.6175 13.1923C63.7477 13.4937 63.9488 13.745 64.1114 14.0346C63.662 13.5587 63.2834 13.0062 63.0083 12.4032C62.7333 11.8002 62.5351 11.1648 62.4139 10.5147C62.2986 9.86146 62.2394 9.2024 62.2512 8.54333ZM54.4201 9.58962C55.1329 9.16704 55.9432 8.85665 56.8157 8.83006C57.2533 8.81239 57.694 8.88323 58.1198 9.02507C58.5397 9.18764 58.9243 9.43303 59.2525 9.73744C59.5749 10.0477 59.8292 10.4171 60.0243 10.8072C60.119 11.0023 60.2018 11.2063 60.2668 11.4131C60.3408 11.62 60.3822 11.8002 60.4503 11.9954C60.7046 12.7549 61.0387 13.4967 61.4291 14.2267C60.8406 13.6386 60.3733 12.9293 60.0214 12.1638C59.9328 11.9776 59.8529 11.7649 59.7818 11.5875C59.7109 11.4072 59.6252 11.2329 59.5305 11.0643C59.3413 10.7304 59.1223 10.4142 58.8415 10.1629C58.5723 9.89987 58.2589 9.69596 57.9158 9.54828C57.5698 9.40046 57.1942 9.32948 56.8068 9.29106C56.0289 9.23204 55.2275 9.39462 54.4201 9.58962Z" fill="#151515"/>
<path d="M71.8005 19.7324C71.1174 21.2604 72.1673 22.4041 72.1673 22.4041L72.7054 21.68C73.2911 24.7536 71.6705 26.3142 71.5817 26.3969C76.6388 24.6414 75.935 19.3806 75.935 19.3806C74.5361 21.1865 72.741 20.7166 72.741 20.7166C72.741 20.7166 75.441 16.9483 73.8175 15.4618C72.1909 13.9752 71.1411 15.8932 71.1411 15.8932C71.9277 16.2006 72.4866 18.2014 71.8005 19.7324ZM72.9687 25.0462C73.2851 24.7744 73.5571 24.4818 73.7997 24.1597C74.0334 23.8345 74.2374 23.4917 74.4148 23.1311C74.5923 22.7706 74.7431 22.3952 74.8822 22.0139C75.0151 21.6298 75.1453 21.2426 75.2547 20.8436C75.2547 21.6741 75.0388 22.5017 74.681 23.2612C74.4918 23.6365 74.2611 23.9941 73.9801 24.3074C73.6933 24.6207 73.3443 24.8719 72.9687 25.0462ZM71.8951 15.8548C71.8893 15.648 72.0401 15.4263 72.2619 15.3524C72.4837 15.2755 72.7114 15.3139 72.9213 15.376C73.3739 15.5091 73.6636 15.9229 73.8027 16.3307C73.9417 16.7504 73.9446 17.1937 73.8589 17.6104C73.779 18.0272 73.5956 18.4142 73.3562 18.7512C73.4922 18.3611 73.5927 17.968 73.6312 17.5749C73.6667 17.1819 73.6459 16.7859 73.5247 16.4252C73.4063 16.0676 73.1817 15.7337 72.8445 15.5918C72.67 15.5209 72.4748 15.4618 72.2974 15.4913C72.117 15.5062 71.9602 15.6569 71.8951 15.8548Z" fill="#151515"/>
<path d="M42.0171 68.5831C46.3112 64.9745 49.2419 67.0434 52.1697 65.9056C55.1004 64.7706 55.0501 62.1699 55.0501 62.1699C53.5715 64.0347 50.2001 63.8368 50.2001 63.8368C53.5597 61.8684 53.6365 57.0718 53.6365 57.0718C52.7257 59.445 48.9639 62.6753 46.0065 64.0378C43.0521 65.4002 42.0171 68.5831 42.0171 68.5831ZM46.0597 65.2228C46.0657 65.2199 46.0745 65.217 46.0805 65.2139C46.6985 64.8889 47.3078 64.5372 47.8963 64.1589C48.4967 63.7806 49.0703 63.3669 49.6294 62.9294C50.1823 62.4921 50.7236 62.0309 51.1908 61.499C51.6699 60.9788 52.0928 60.4026 52.3767 59.7494C52.1549 60.4292 51.7498 61.038 51.3032 61.5965C50.8478 62.1551 50.3184 62.6427 49.7742 63.1097C49.2301 63.5796 48.6415 63.9905 48.0441 64.3864C47.7544 64.5756 47.4616 64.7618 47.1629 64.9392C47.4793 64.8829 47.7987 64.8534 48.1151 64.8474C48.8041 64.8327 49.4815 64.8829 50.1587 64.9214C50.4958 64.9392 50.833 64.9598 51.1612 64.9392C51.4925 64.9214 51.8178 64.8416 52.1312 64.7293C52.7552 64.5046 53.3112 64.0762 53.7045 63.5235C53.3644 64.1146 52.8143 64.5815 52.1815 64.8593C51.865 64.9953 51.525 65.0868 51.1789 65.1223C50.8299 65.1578 50.4869 65.1489 50.1498 65.1431C49.4696 65.1402 48.7924 65.0899 48.124 65.1134C47.4557 65.1342 46.805 65.2702 46.1751 65.4917L46.0597 65.2228Z" fill="#151515"/>
<path d="M66.075 37.9441C66.075 37.9441 62.748 35.8222 62.2069 32.8047C62.2069 32.8047 61.287 38.6742 66.075 37.9441Z" fill="#151515"/>
<path d="M40.4263 14.9831C40.4264 14.9832 40.4267 14.9831 40.4271 14.9832C40.4278 14.9836 40.4291 14.9842 40.4309 14.985C40.4345 14.9868 40.4405 14.9895 40.4484 14.9932C40.4646 15.0006 40.4894 15.012 40.5226 15.0269C40.5889 15.0567 40.689 15.1007 40.8201 15.1559C41.0826 15.2665 41.4696 15.4222 41.9622 15.6002C42.9478 15.9567 44.3531 16.4014 46.0257 16.7529C49.379 17.4573 53.763 17.7773 57.9919 16.303L58.9233 15.9784L58.6961 16.9373C58.6961 16.9374 58.6961 16.9376 58.696 16.9378C58.6958 16.9385 58.6955 16.9397 58.6953 16.9412C58.6946 16.9443 58.6933 16.9491 58.6918 16.9558C58.6887 16.969 58.6841 16.9892 58.678 17.0161C58.666 17.0698 58.6483 17.1503 58.6263 17.2548C58.5822 17.4638 58.5209 17.7692 58.4528 18.1509C58.3162 18.9146 58.1521 19.9814 58.043 21.1918C57.8228 23.6331 57.8337 26.577 58.6758 28.8073L58.7269 28.9443C59.7974 31.8514 60.695 36.7319 59.3888 42.2218C58.0582 47.8147 54.4498 53.9977 46.5006 59.3431L46.487 59.3521L46.4731 59.3604L46.473 59.3605C46.4727 59.3606 46.4719 59.3612 46.471 59.3617C46.4692 59.3627 46.4663 59.3645 46.4621 59.3669C46.4537 59.3719 46.4408 59.3798 46.4235 59.3903C46.3889 59.4114 46.3371 59.4433 46.27 59.4858C46.1361 59.5708 45.942 59.6975 45.705 59.8618C45.2307 60.1909 44.5888 60.6689 43.9187 61.2632C42.5606 62.4678 41.1626 64.0844 40.7197 65.856L40.1952 67.9543L39.6706 65.856C39.2278 64.0844 37.8299 62.4678 36.4719 61.2632C35.8017 60.6689 35.1597 60.1909 34.6852 59.8618C34.4484 59.6975 34.2543 59.5708 34.1202 59.4858C34.0533 59.4433 34.0013 59.4114 33.9668 59.3903C33.9496 59.3798 33.9367 59.3719 33.9283 59.3669C33.9243 59.3645 33.9212 59.3627 33.9194 59.3617C33.9184 59.3612 33.9178 59.3606 33.9176 59.3605L33.9034 59.3521L33.8897 59.3431C25.9404 53.9977 22.333 47.8146 21.0027 42.2217C19.6763 36.6447 20.6236 31.6968 21.7145 28.8076C22.5567 26.5773 22.5676 23.6333 22.3474 21.1918C22.2381 19.9814 22.0742 18.9146 21.9376 18.1509C21.8693 17.7692 21.8082 17.4638 21.7641 17.2548C21.7421 17.1503 21.7244 17.0698 21.7123 17.0161C21.7063 16.9892 21.7017 16.969 21.6986 16.9558C21.6971 16.9493 21.696 16.9443 21.6953 16.9412C21.6948 16.9397 21.6946 16.9385 21.6944 16.9378L21.6943 16.9373L21.467 15.9783L22.3985 16.303C26.626 17.7773 31.01 17.4574 34.3637 16.7529C36.0365 16.4014 37.4419 15.9567 38.4278 15.6002C38.9205 15.4222 39.3077 15.2665 39.5701 15.1559C39.7014 15.1007 39.8013 15.0566 39.8678 15.0268C39.901 15.0119 39.9259 15.0006 39.942 14.9932C39.95 14.9895 39.9558 14.9868 39.9595 14.985C39.9613 14.9842 39.9627 14.9836 39.9634 14.9832C39.9637 14.9831 39.964 14.9829 39.964 14.9829V14.9831L40.1952 14.8735L40.4263 14.9831ZM40.1951 16.0628C40.1371 16.0881 40.0688 16.1177 39.9902 16.1507C39.7121 16.2678 39.3077 16.4306 38.7959 16.6156C37.7728 16.9855 36.318 17.4458 34.5861 17.8096C31.3601 18.4873 27.1336 18.8379 22.9371 17.609C22.9578 17.718 22.9797 17.8356 23.0022 17.961C23.1428 18.7477 23.3116 19.8462 23.4242 21.0949C23.6476 23.5712 23.6585 26.7198 22.7262 29.1886C21.6968 31.9149 20.7868 36.6415 22.0547 41.9721C23.3181 47.2843 26.7538 53.2391 34.4823 58.4396C34.4829 58.44 34.4836 58.4404 34.4843 58.4409C34.495 58.4473 34.5105 58.4566 34.5303 58.4687C34.57 58.4929 34.6273 58.5283 34.6999 58.5742C34.8451 58.6664 35.0519 58.8012 35.3022 58.9749C35.8024 59.3221 36.4801 59.8262 37.1899 60.4558C38.2659 61.4102 39.4607 62.6914 40.1951 64.1838C40.9296 62.6914 42.1245 61.4102 43.2006 60.4558C43.9105 59.8264 44.588 59.3221 45.0882 58.9749C45.3385 58.8012 45.5453 58.6664 45.6905 58.5742C45.7631 58.5283 45.8204 58.4929 45.8601 58.4687C45.8799 58.4566 45.8954 58.4473 45.9063 58.4409C45.907 58.4404 45.9075 58.44 45.9081 58.4396C53.6365 53.239 57.073 47.2843 58.3368 41.9721C59.6051 36.6415 58.6951 31.9147 57.6642 29.1887V29.1886C56.7321 26.7198 56.7428 23.5712 56.9662 21.0949C57.0788 19.8462 57.2477 18.7477 57.3884 17.961C57.4108 17.8356 57.4326 17.718 57.4532 17.609C53.2554 18.8381 49.0289 18.4873 45.8031 17.8096C44.0714 17.4459 42.6171 16.9855 41.5941 16.6156C41.0824 16.4306 40.678 16.2678 40.3999 16.1507C40.3215 16.1176 40.253 16.0881 40.1951 16.0628Z" fill="#151515"/>
<path d="M12.7506 43.2045C12.7498 43.199 12.0822 38.8191 16.6041 39.5575C16.6041 39.5575 14.8001 39.8087 15.3502 42.1169C15.9032 44.4282 19.94 47.1087 21.0993 49.8601C22.2586 52.6087 24.6422 59.1225 18.9227 61.738C18.9353 61.7404 23.5215 62.5847 23.684 57.1306C23.684 57.1306 25.6594 62.5834 20.2268 63.6651C14.7942 64.7438 13.9779 57.636 16.7697 57.2369C16.7824 57.2327 18.822 56.5581 19.7329 58.7413C19.7329 58.7413 21.3152 56.9768 20.5107 54.7838C19.7063 52.591 17.8521 53.1496 17.8521 53.1496C17.8521 53.1496 17.7811 51.0956 19.8837 51.6866C19.8797 51.678 18.6115 48.976 16.3764 48.6574C14.1459 48.336 14.07 49.953 14.0696 49.9606C14.0696 49.9606 14.0962 50.7171 14.9095 50.2916C14.9095 50.2916 14.8296 51.8936 13.4307 51.6542C12.032 51.4148 11.3902 49.0327 13.2681 47.7795C13.2578 47.7818 10.2994 48.4063 10.5562 51.9466C10.5562 51.9466 11.1123 53.6343 12.5732 52.6324C12.5767 52.6431 13.4137 55.2065 10.9052 55.2124C8.38851 55.2182 7.85332 48.6101 11.7836 47.1826C15.6193 45.7936 17.9852 48.0279 18.0976 48.1371C18.0147 48.016 16.1073 45.3117 12.0615 45.229C10.5119 45.1936 9.01248 45.7403 7.88579 46.8427C7.18781 47.5283 6.60523 48.4357 6.70878 49.5086C5.03199 48.2081 4.98461 45.5215 4.98461 45.5215C1.74265 45.6603 0.00690324 41.8771 0.00439453 41.8717C3.23088 44.5079 5.68258 43.3522 8.12537 42.4419C10.5651 41.5318 12.7506 43.2045 12.7506 43.2045ZM17.0093 57.7068C16.7164 57.76 16.4533 57.9316 16.2256 58.1266C15.773 58.5373 15.5867 59.1462 15.563 59.7107C15.5482 60.287 15.711 60.8278 15.9386 61.3185C16.1753 61.8001 16.5095 62.2523 16.9323 62.6159C17.3701 62.9645 17.8935 63.201 18.4288 63.2868C19.5022 63.467 20.5492 63.1626 21.3832 62.6246C20.4161 62.8256 19.4313 62.8819 18.5856 62.6159C18.1686 62.4799 17.7959 62.2641 17.4824 61.9834C17.3434 61.8208 17.1838 61.6819 17.0713 61.4928C16.9383 61.3274 16.8406 61.1263 16.7372 60.9313C16.5538 60.5382 16.4207 60.1273 16.4029 59.7135C16.3941 59.3087 16.4887 58.9038 16.7282 58.6053C16.9677 58.3127 17.3493 58.1324 17.7811 58.1621C18.2218 58.1798 18.6624 58.3897 19.0911 58.6438C18.7924 58.2478 18.3903 57.893 17.8581 57.7335L17.6539 57.6831C17.5859 57.6684 17.5149 57.6742 17.444 57.6684L17.2252 57.6655L17.0093 57.7068ZM9.49164 51.3259C9.31115 51.7693 9.27868 52.2748 9.35255 52.7535C9.42948 53.2352 9.58335 53.7169 9.89973 54.1337C10.0594 54.3376 10.2546 54.5416 10.5297 54.6569C10.6657 54.7101 10.8136 54.7543 10.9673 54.7514C11.0443 54.7572 11.1123 54.7514 11.1772 54.7396C11.2423 54.7307 11.3103 54.7159 11.3754 54.6922C11.6387 54.6183 11.8872 54.4501 12.0232 54.2196C12.1651 53.992 12.2123 53.7348 12.1768 53.4983C12.0851 53.7169 11.964 53.9092 11.8013 54.0333C11.6505 54.1692 11.4671 54.2225 11.2778 54.2431C11.2335 54.252 11.1832 54.2518 11.1329 54.246C11.0856 54.2489 11.0383 54.2489 10.9999 54.2372C10.9201 54.2283 10.8461 54.1928 10.7722 54.1544C10.6243 54.0776 10.4911 53.9327 10.3698 53.7761C10.1273 53.4569 9.94711 53.0579 9.80216 52.6471C9.65429 52.2304 9.55659 51.7989 9.49164 51.3259ZM14.602 40.3613C14.3891 40.5889 14.2974 40.9051 14.2649 41.2125C14.2352 41.5258 14.2678 41.842 14.3388 42.1435C14.4837 42.7523 14.7438 43.3256 15.0957 43.8489C15.4477 44.369 15.8795 44.8123 16.2965 45.2645L17.5711 46.5944C18.4259 47.4692 19.2362 48.3854 19.934 49.3815C20.6349 50.3774 21.2058 51.471 21.534 52.656C21.466 52.3576 21.4069 52.0531 21.3181 51.7576C21.2116 51.4679 21.1316 51.1695 21.0045 50.8857C20.7531 50.3213 20.4634 49.7715 20.1233 49.2544C19.4519 48.2141 18.6268 47.286 17.784 46.3904C16.9323 45.5039 16.0185 44.6705 15.2791 43.7159C14.9272 43.24 14.6462 42.6873 14.4777 42.1081C14.3889 41.8214 14.3358 41.5199 14.3417 41.2185C14.3535 40.92 14.4128 40.6096 14.602 40.3613ZM12.6352 49.3076C12.5466 49.5823 12.5496 49.8897 12.6206 50.1764C12.6886 50.466 12.8215 50.7408 13.0316 50.9714C13.1439 51.0778 13.277 51.1724 13.4338 51.2256C13.5905 51.2758 13.7591 51.2611 13.904 51.2256C14.0548 51.1901 14.2027 51.1133 14.3032 50.992C14.3978 50.8709 14.454 50.7202 14.4482 50.5754C14.3683 50.8591 14.1258 51.0306 13.8714 51.0572C13.6023 51.1014 13.3746 51.0069 13.1912 50.8148C13.0137 50.6257 12.8806 50.3834 12.786 50.1261C12.6943 49.8691 12.6352 49.5942 12.6352 49.3076ZM9.13959 45.0192C8.97108 45.0842 8.80258 45.1551 8.63701 45.229C8.47436 45.3088 8.30865 45.3915 8.14892 45.4772C7.83547 45.6664 7.52788 45.8704 7.2529 46.1186C6.97499 46.364 6.72049 46.6388 6.51938 46.9579C6.41889 47.1174 6.32718 47.2831 6.25917 47.4604C6.22377 47.5491 6.19115 47.6377 6.16453 47.7293C5.98711 47.487 5.87478 47.1795 5.79199 46.8693C5.68551 46.4585 5.62628 46.0329 5.59673 45.5985C5.56426 45.8142 5.55533 46.0329 5.55533 46.2515C5.55241 46.4703 5.57011 46.689 5.60258 46.9077C5.67352 47.3392 5.80969 47.7944 6.16161 48.1402L6.3538 48.3323L6.39227 48.0396C6.43074 47.7352 6.58753 47.4012 6.76495 47.1146C6.94837 46.8221 7.18195 46.5559 7.43032 46.3078C7.67882 46.0565 7.95966 45.8408 8.24063 45.6221L8.68133 45.3117C8.83506 45.2172 8.98878 45.1226 9.13959 45.0192ZM9.87018 42.7552C8.93568 42.7523 8.03659 43.0005 7.18781 43.2872L6.55492 43.5177L6.24147 43.6359L5.94293 43.7364C5.54363 43.8664 5.1237 43.9315 4.69777 43.9669C3.84314 44.0231 2.96481 43.9197 2.09833 43.695C2.87603 44.1473 3.78098 44.3954 4.70669 44.425C5.17095 44.4428 5.63812 44.3838 6.09652 44.2714L6.43673 44.1709L6.75018 44.0615L7.37722 43.8458C7.79116 43.6981 8.20816 43.565 8.62516 43.4558C9.04216 43.3404 9.46502 43.2637 9.88788 43.2164C10.7367 43.1277 11.5973 43.2932 12.4047 43.695C11.7422 43.0862 10.8047 42.7434 9.87018 42.7552Z" fill="#151515"/>
<path d="M40.2864 39.0786L23.3403 39.2854L23.3969 39.0867C25.7306 30.8797 25.7695 24.1275 25.1968 20.5485L25.1614 20.3272L25.3809 20.3731C27.7226 20.8626 30.5943 20.7972 33.2889 20.4808C35.9819 20.1646 38.4854 19.5992 40.0856 19.0966L40.2864 19.0337V39.0786ZM39.9774 19.4528C38.3539 19.9452 35.926 20.4818 33.325 20.7873C30.6978 21.0958 27.8819 21.1698 25.5352 20.7186C26.0751 24.3674 25.993 30.9793 23.7497 38.972L39.9774 38.7739V19.4528Z" fill="#151515"/>
<path d="M56.4871 38.7607L56.4842 38.918C56.3995 43.2609 52.8778 53.7187 40.041 59.1556L39.8247 59.2472L39.9545 38.7607H56.4871ZM40.1365 58.7788C52.5224 53.4342 56.008 43.3687 56.1706 39.0692H40.2616L40.1365 58.7788Z" fill="#151515"/>
<path d="M47.3148 44.583C47.9449 43.9139 48.5756 43.2456 49.2034 42.5743C49.2453 42.5294 49.262 42.4589 49.2974 42.4058C49.3311 42.3554 49.3699 42.2791 49.4143 42.272C49.5269 42.2542 49.5859 42.1719 49.6558 42.0989C49.7746 41.9754 49.82 41.9748 49.9402 42.1012C49.9832 42.1466 50.028 42.191 50.0681 42.2394C50.124 42.3064 50.1248 42.3756 50.0646 42.4418C50.0547 42.4528 50.045 42.4638 50.0347 42.4745C49.8394 42.6783 49.8635 42.6489 50.032 42.8311C50.1018 42.9066 50.1655 42.9838 50.2802 42.992C50.3526 42.9973 50.3775 43.0877 50.3239 43.1503C50.2179 43.2736 50.107 43.3932 49.9903 43.5048C49.9208 43.5715 49.8473 43.5308 49.8334 43.4289C49.8313 43.4139 49.8369 43.3922 49.8294 43.3847C49.7888 43.3443 49.7471 43.2811 49.702 43.2775C49.667 43.2746 49.6041 43.3411 49.5934 43.3875C49.5757 43.4632 49.6322 43.5074 49.7016 43.5304C49.748 43.5459 49.7909 43.573 49.8354 43.5951C49.8119 43.6469 49.7976 43.7072 49.7632 43.7488C49.6854 43.843 49.6015 43.932 49.5129 44.0145C49.4795 44.0456 49.4237 44.0713 49.3838 44.0639C49.358 44.0592 49.3425 43.9903 49.3227 43.9499C49.3037 43.9105 49.2906 43.8663 49.2652 43.8323C49.2301 43.7849 49.186 43.7448 49.1452 43.7022C49.0112 43.5609 49.0046 43.5609 48.8734 43.7001C47.8107 44.8285 46.7476 45.9565 45.6868 47.0873C45.6455 47.1312 45.6213 47.1983 45.6021 47.2594C45.5731 47.352 45.524 47.4046 45.4303 47.422C45.3902 47.4292 45.341 47.4628 45.3208 47.4997C45.2351 47.6568 45.2326 47.8297 45.2834 47.9966C45.3382 48.1767 45.4029 48.3546 45.4784 48.5258C45.6326 48.8756 45.5828 49.1946 45.3542 49.4803C45.1266 49.7655 44.8207 49.8677 44.4926 49.7534C44.1714 49.6415 43.8522 49.6102 43.5209 49.6262C43.312 49.6362 43.1261 49.5704 43.0177 49.3669C42.97 49.2778 42.9462 49.1693 42.9317 49.0664C42.9172 48.9623 42.9257 48.8541 42.9276 48.7479C42.9321 48.5025 42.8978 48.2659 42.8227 48.0317C42.6635 47.5357 42.9045 47.0298 43.3665 46.8714C43.5658 46.8032 43.7587 46.8197 43.9515 46.9105C44.1273 46.9936 44.3069 47.0706 44.4903 47.131C44.6405 47.1805 44.797 47.1662 44.9367 47.0788C44.9685 47.059 44.9816 47.0065 45.0051 46.9708C45.0439 46.9119 45.0737 46.8343 45.1269 46.8032C45.1604 46.7835 45.2313 46.8321 45.2834 46.8549C45.302 46.8629 45.3123 46.8935 45.3304 46.8996C45.3569 46.9085 45.387 46.9048 45.4156 46.9064C45.414 46.8757 45.4243 46.8292 45.4094 46.8168C45.295 46.722 45.3586 46.6577 45.4315 46.5809C46.0603 45.9164 46.6873 45.2494 47.3148 44.583ZM44.7064 48.3441C44.7021 48.3696 44.6981 48.3874 44.6964 48.4057C44.6708 48.6811 44.5286 48.8565 44.2854 48.9438C44.1781 48.9823 44.1718 48.9971 44.229 49.0998C44.3697 49.3521 44.6925 49.421 44.9209 49.2472C45.137 49.0831 45.1793 48.7394 45.0097 48.5199C44.9326 48.42 44.8363 48.356 44.7064 48.3441ZM44.1326 47.7442C44.136 47.5307 43.9293 47.3235 43.7127 47.3082C43.4801 47.2917 43.274 47.4425 43.2135 47.6822C43.1555 47.9115 43.262 48.1674 43.4511 48.2613C43.5085 48.2898 43.5455 48.2846 43.5651 48.2148C43.6493 47.9197 43.8379 47.7633 44.1326 47.7442ZM43.9069 48.1248C43.7839 48.2553 43.7853 48.4679 43.9098 48.5954C44.0301 48.7186 44.2287 48.7165 44.3469 48.5908C44.4653 48.4647 44.4664 48.2559 44.3491 48.1277C44.227 47.9948 44.0305 47.9934 43.9069 48.1248ZM43.3609 48.7777C43.2596 48.8836 43.2556 49.0591 43.3522 49.1686C43.4515 49.2813 43.6231 49.2844 43.7275 49.1754C43.8315 49.0671 43.8323 48.8827 43.7294 48.7762C43.6289 48.6722 43.4614 48.6729 43.3609 48.7777ZM44.6429 48.0019C44.639 48.0133 44.6352 48.0247 44.6313 48.0363C44.6953 48.0438 44.7593 48.0549 44.8231 48.0527C44.8292 48.0524 44.8381 47.968 44.8362 47.9234C44.8323 47.8294 44.8538 47.7008 44.8059 47.6514C44.754 47.5979 44.6348 47.6138 44.5444 47.6089C44.5003 47.6067 44.4554 47.6258 44.4108 47.6352C44.4249 47.6979 44.4235 47.7729 44.4567 47.8208C44.5059 47.8912 44.5797 47.9423 44.6429 48.0019Z" fill="#151515"/>
<path d="M47.9234 46.581C47.9963 46.6579 48.0598 46.7224 47.9454 46.8171C47.9305 46.8293 47.9407 46.8758 47.9394 46.9067C47.9679 46.9051 47.998 46.9087 48.0244 46.8998C48.0427 46.8936 48.053 46.8632 48.0714 46.8551C48.1235 46.8323 48.1945 46.7838 48.2279 46.8033C48.2814 46.8346 48.3113 46.9122 48.3497 46.9709C48.3733 47.0069 48.3864 47.0591 48.4182 47.079C48.558 47.1663 48.7143 47.1808 48.8646 47.1312C49.048 47.0708 49.2275 46.9937 49.4034 46.9108C49.5963 46.8197 49.789 46.8032 49.9883 46.8715C50.4504 47.0298 50.6913 47.5357 50.5322 48.0317C50.457 48.2656 50.4228 48.5024 50.4272 48.7479C50.4292 48.8541 50.4378 48.9623 50.4232 49.0664C50.4088 49.1693 50.385 49.2778 50.3373 49.3669C50.2288 49.5701 50.0428 49.6362 49.8339 49.6262C49.5026 49.6102 49.1835 49.6415 48.8622 49.7534C48.5341 49.8677 48.2282 49.7655 48.0002 49.4803C47.7716 49.1946 47.7219 48.8758 47.876 48.5258C47.9515 48.3546 48.0162 48.1766 48.071 47.9966C48.1217 47.8297 48.1194 47.6568 48.0336 47.4997C48.0134 47.4628 47.9645 47.4292 47.9241 47.422C47.8304 47.4046 47.7814 47.352 47.7524 47.2594C47.7332 47.1985 47.7089 47.1312 47.6678 47.0873C46.6072 45.9565 45.5437 44.8285 44.481 43.7001C44.3501 43.5609 44.3432 43.5609 44.2092 43.7022C44.1687 43.7449 44.1246 43.7849 44.0892 43.8323C44.0639 43.8663 44.0508 43.9107 44.0317 43.9499C44.0122 43.9903 43.9964 44.0595 43.9706 44.0639C43.9308 44.0713 43.8749 44.0456 43.8416 44.0145C43.7529 43.932 43.669 43.843 43.5913 43.7488C43.5568 43.7072 43.5425 43.6469 43.5191 43.5951C43.5635 43.5733 43.6065 43.5459 43.6529 43.5304C43.722 43.5072 43.7787 43.4632 43.7612 43.3875C43.7503 43.3414 43.6874 43.2746 43.6524 43.2775C43.6073 43.2811 43.5656 43.3442 43.5251 43.3847C43.5174 43.3922 43.523 43.4141 43.521 43.4289C43.5071 43.5308 43.4336 43.5715 43.3641 43.5048C43.2473 43.3932 43.1365 43.2736 43.0306 43.1503C42.9769 43.0877 43.0019 42.9973 43.0742 42.992C43.1886 42.9838 43.2526 42.9063 43.3224 42.8311C43.4912 42.6487 43.515 42.6783 43.3198 42.4745C43.3095 42.4638 43.2998 42.4528 43.2898 42.4418C43.2295 42.3756 43.2304 42.3064 43.2863 42.2394C43.3265 42.191 43.3712 42.1467 43.4143 42.1012C43.5344 41.9748 43.5798 41.9754 43.6986 42.0989C43.7686 42.1717 43.8272 42.2539 43.9401 42.272C43.9846 42.2791 44.0233 42.3554 44.057 42.4058C44.0926 42.4589 44.1092 42.5294 44.151 42.5743C44.7789 43.2456 45.4095 43.9139 46.0396 44.583C46.6675 45.2494 47.2945 45.9164 47.9234 46.581ZM48.345 48.5199C48.1754 48.7394 48.2176 49.0831 48.4336 49.2472C48.6622 49.421 48.9849 49.3521 49.1258 49.0998C49.183 48.9971 49.1766 48.9823 49.0693 48.9438C48.826 48.8565 48.6841 48.6811 48.6583 48.4057C48.6565 48.3877 48.6525 48.3696 48.6481 48.3441C48.5185 48.356 48.4223 48.42 48.345 48.5199ZM49.7899 48.2145C49.8099 48.2841 49.8466 48.2896 49.9039 48.261C50.0933 48.1671 50.1996 47.9113 50.1417 47.6819C50.081 47.4423 49.8749 47.2916 49.6424 47.308C49.4257 47.3232 49.2191 47.5306 49.2223 47.744C49.517 47.7633 49.7057 47.9197 49.7899 48.2145ZM49.0059 48.128C48.8887 48.2559 48.8895 48.465 49.0083 48.5911C49.1265 48.7166 49.3251 48.7187 49.4452 48.5957C49.5698 48.4682 49.5711 48.2553 49.4483 48.1249C49.3244 47.9934 49.1278 47.9948 49.0059 48.128ZM49.6254 48.7765C49.5226 48.8829 49.5234 49.0674 49.6274 49.1757C49.7319 49.2844 49.9035 49.2813 50.0027 49.1688C50.0993 49.0594 50.0955 48.8838 49.9939 48.778C49.8934 48.6729 49.7262 48.6722 49.6254 48.7765ZM48.8982 47.8208C48.9315 47.7732 48.9299 47.6982 48.944 47.6352C48.8997 47.6258 48.8545 47.6067 48.8105 47.6089C48.7202 47.6138 48.6009 47.5979 48.549 47.6514C48.5008 47.7008 48.5226 47.8294 48.5187 47.9234C48.5167 47.9683 48.5258 48.0524 48.5318 48.0527C48.5953 48.0549 48.6596 48.0438 48.7235 48.0363C48.7196 48.0248 48.7159 48.0134 48.712 48.0019C48.7752 47.9423 48.849 47.8912 48.8982 47.8208Z" fill="#151515"/>
<path d="M49.1498 12.1449C48.42 13.0013 47.378 13.5815 46.2241 13.7989C46.2202 13.7989 46.2144 13.8008 46.2124 13.8008C46.9836 13.2228 49.195 11.3748 48.9006 9.37601C48.6337 7.58089 46.6186 7.43001 46.6186 7.43001C46.6186 7.43001 47.7508 10.0167 44.5248 13.4913C44.1245 13.9223 43.5574 14.1908 42.9452 14.2418C42.9217 14.2437 42.8942 14.2437 42.8707 14.2476C43.4573 13.4462 46.4145 9.22708 45.1999 7.34775C44.0912 5.62904 41.8482 6.61673 41.8482 6.61673L41.8463 11.5649C41.5774 11.3983 41.2772 11.3043 40.9515 11.3043C40.6375 11.3043 40.3433 11.3924 40.0803 11.5492L40.0764 6.62062C40.0764 6.62062 37.8374 5.63294 36.7269 7.35165C35.4887 9.27204 38.5949 13.6264 39.0894 14.2947H39.0796C38.4535 14.2595 37.865 13.991 37.4548 13.5539C34.1621 10.0501 35.31 7.43586 35.31 7.43586C35.31 7.43586 33.2948 7.58674 33.0298 9.38186C32.7002 11.5845 35.4239 13.6089 35.9026 13.9439C35.8928 13.942 35.8712 13.9381 35.8399 13.9342C34.8077 13.7617 33.8481 13.305 33.1202 12.6055C32.2606 11.7844 31.411 10.5556 31.7406 9.0801C32.5236 5.54483 35.9341 6.42075 35.9341 6.42075C37.2173 4.88828 38.7853 4.97263 39.8154 5.27244C39.8998 5.29791 39.9763 5.32143 40.047 5.3469C40.1175 5.37043 40.1843 5.3959 40.2471 5.42137C40.2647 5.42722 40.2804 5.43306 40.2962 5.441C40.8633 5.67804 40.9182 5.88571 40.9182 5.88571C41.0574 5.71923 41.2478 5.58993 41.4264 5.49584C41.4283 5.49389 41.4324 5.49389 41.4343 5.49194C42.3565 5.0862 44.3482 4.53752 45.922 6.4149C45.922 6.4149 49.3303 5.53495 50.1192 9.06827C50.3939 10.297 49.8268 11.3689 49.1498 12.1449Z" fill="#151515"/>
<path d="M40.9704 5.23553C41.4144 5.23553 41.7743 4.87609 41.7743 4.43271C41.7743 3.98932 41.4144 3.62988 40.9704 3.62988C40.5264 3.62988 40.1665 3.98932 40.1665 4.43271C40.1665 4.87609 40.5264 5.23553 40.9704 5.23553Z" fill="#151515"/>
<path d="M40.9705 6.33011C41.273 6.33011 41.5183 6.08515 41.5183 5.78297C41.5183 5.4808 41.273 5.23584 40.9705 5.23584C40.6679 5.23584 40.4226 5.4808 40.4226 5.78297C40.4226 6.08515 40.6679 6.33011 40.9705 6.33011Z" fill="#151515"/>
<path d="M40.9707 7.05802C41.198 7.05802 41.3823 6.87397 41.3823 6.64693C41.3823 6.41989 41.198 6.23584 40.9707 6.23584C40.7434 6.23584 40.5591 6.41989 40.5591 6.64693C40.5591 6.87397 40.7434 7.05802 40.9707 7.05802Z" fill="#151515"/>
<path d="M41.1832 3.09082H40.6765V3.92823H41.1832V3.09082Z" fill="#151515"/>
<path d="M33.1272 32.1363C33.1911 32.5206 33.3959 33.366 33.7028 33.6735C33.6393 33.864 33.3995 34.3568 32.9465 34.8147V34.8262C32.9446 34.8243 32.9428 34.8223 32.941 34.8204C32.939 34.8223 32.9373 34.8244 32.9354 34.8262V34.8147C32.4824 34.3568 32.2426 33.864 32.1791 33.6735C32.486 33.366 32.6906 32.5206 32.7546 32.1363H33.1272ZM31.0282 31.752C30.9003 32.0082 30.7596 32.559 31.22 32.7127C31.6803 32.8665 31.9234 32.3924 31.9874 32.1363H32.3711C32.3071 32.7767 31.9489 33.9424 31.0282 33.4813C30.1075 33.0201 30.6445 32.1363 31.0282 31.752ZM34.8537 31.752C35.2374 32.1363 35.7745 33.0201 34.8537 33.4813C33.933 33.9424 33.5748 32.7767 33.5108 32.1363H33.8945C33.9585 32.3924 34.2016 32.8663 34.6619 32.7127C35.1223 32.559 34.9816 32.0082 34.8537 31.752ZM34.0852 31.099C34.2976 31.099 34.4699 31.2711 34.4699 31.4832C34.4699 31.6955 34.2976 31.8675 34.0852 31.8675H31.7856C31.573 31.8675 31.4007 31.6955 31.4007 31.4832C31.4007 31.2711 31.573 31.099 31.7856 31.099H34.0852ZM27.9587 29.6387C28.4215 27.9092 31.9874 28.2938 32.5628 30.7917H31.7949C31.5391 30.4714 30.7973 29.8309 29.8764 29.8309C28.7256 29.831 28.9175 31.3823 30.2601 30.9839C29.4289 31.3681 27.5474 31.1754 27.9587 29.6387ZM33.3191 30.7917C33.8945 28.2938 37.4604 27.9092 37.9234 29.6387C38.3347 31.1754 36.453 31.3681 35.6218 30.9839C36.9645 31.3823 37.1563 29.8309 36.0053 29.8309C35.0846 29.831 34.3428 30.4714 34.087 30.7917H33.3191ZM32.9465 24.277C33.3344 24.9277 34.1263 26.4191 34.2782 27.3326C34.4701 28.4855 33.8945 28.6776 33.5108 29.2541C33.2197 29.6916 33.0208 30.394 32.9465 30.7385V30.7913C32.9447 30.7828 32.9428 30.774 32.941 30.7648C32.939 30.774 32.9372 30.7828 32.9354 30.7913V30.7385C32.8612 30.394 32.6622 29.6916 32.3711 29.2541C31.9874 28.6777 31.4119 28.4855 31.6037 27.3326C31.7557 26.4191 32.5476 24.9277 32.9354 24.277V24.2583C32.9373 24.2614 32.939 24.2644 32.941 24.2676C32.9428 24.2644 32.9446 24.2614 32.9465 24.2583V24.277Z" fill="#151515"/>
<path d="M51.7044 102.079H51.2582V102.836H50.7704V102.079H48.8296V101.628L50.5991 99.0889H51.2582V101.628H51.7044V102.079ZM49.3796 101.628H50.7704V99.6279L49.3796 101.628Z" fill="#151515"/>
<path d="M44.8044 102.831L42.272 102.836V102.447L43.481 101.405C44.0883 100.882 44.2594 100.628 44.2594 100.229C44.2594 99.7574 43.9896 99.4775 43.5382 99.4775C43.0763 99.4775 42.7754 99.8144 42.7649 100.348H42.2563C42.272 99.545 42.7805 99.0215 43.5433 99.0215C44.2958 99.0215 44.7784 99.4775 44.7784 100.198C44.7784 100.732 44.5138 101.11 43.8495 101.685L43.0711 102.359H44.8044V102.831Z" fill="#151515"/>
<path d="M34.9534 100.965C34.9534 99.8043 35.5553 99.0166 36.4997 99.0166C37.4391 99.0166 38.041 99.8043 38.041 100.965C38.041 102.131 37.465 102.903 36.4997 102.903C35.5294 102.903 34.9534 102.131 34.9534 100.965ZM35.4568 100.965C35.4568 101.888 35.8408 102.447 36.4997 102.447C37.1588 102.447 37.5376 101.888 37.5376 100.965C37.5376 100.032 37.1588 99.4726 36.4997 99.4726C35.8408 99.4726 35.4568 100.032 35.4568 100.965Z" fill="#151515"/>
<path d="M30.749 102.831L28.2166 102.836V102.447L29.4258 101.405C30.033 100.882 30.2042 100.628 30.2042 100.229C30.2042 99.7574 29.9344 99.4775 29.4828 99.4775C29.0211 99.4775 28.7201 99.8144 28.7097 100.348H28.2012C28.2166 99.545 28.7252 99.0215 29.4881 99.0215C30.2405 99.0215 30.7231 99.4775 30.7231 100.198C30.7231 100.732 30.4585 101.11 29.7942 101.685L29.0158 102.359H30.749V102.831Z" fill="#151515"/>
<path d="M73.5583 84.0926L77.5589 87.8026C78.3753 88.5567 78.5999 89.4537 78.5999 90.2894C78.5999 92.5317 77.1098 94.1013 74.7625 94.1013C73.7624 94.1013 72.1091 93.8158 71.313 92.9802C71.1702 92.3482 71.2314 91.0436 71.5581 90.1264H71.7213C71.5172 92.2463 72.8643 93.5713 74.6809 93.4897C76.1709 93.3878 77.416 92.3686 77.416 90.7583C77.416 89.9429 77.1098 89.3313 76.5996 88.8422L72.7011 85.2137C71.8641 84.4596 71.5988 83.4811 71.5988 82.6861C71.5988 80.9738 72.8439 79.2412 75.1707 79.2412C75.7218 79.2412 76.3751 79.3431 76.9261 79.4654H77.7426V79.71V81.9523H77.5384C77.5384 80.6477 76.5179 79.8527 75.2524 79.8527C73.742 79.8527 72.7419 80.9738 72.7419 82.1969C72.7419 82.7472 72.9051 83.4811 73.5583 84.0926Z" fill="#151515"/>
<path d="M68.9008 93.5916V93.7953H64.4512V93.5916H64.6961C65.4105 93.5916 66.0024 93.0208 66.0024 92.3277V81.0144C66.0024 80.3011 65.4105 79.7303 64.6961 79.7303H64.4512V79.5264H68.9008V79.7303H68.6354C67.9414 79.7303 67.3494 80.3011 67.3291 81.0144V92.3277C67.3494 93.0208 67.921 93.5916 68.6354 93.5916H68.9008Z" fill="#151515"/>
<path d="M61.9073 90.5136H62.1114L60.9276 93.8159H52.4773V93.6119H52.7223C53.4367 93.6119 54.0287 93.0208 54.0287 92.3278V81.0145C54.0287 80.3215 53.4367 79.7507 52.7223 79.7507H52.4773V79.5469H56.9269V79.7507H56.6617C55.9473 79.7507 55.3757 80.3215 55.3553 81.0145V93.1839H58.2946C60.4581 93.1839 61.2745 92.0628 61.9073 90.5136Z" fill="#151515"/>
<path d="M50.1376 93.5916V93.7953H45.688V93.5916H45.9329C46.6473 93.5916 47.2392 93.0208 47.2392 92.3277V81.0144C47.2392 80.3011 46.6473 79.7303 45.9329 79.7303H45.688V79.5264H50.1376V79.7303H49.8722C49.1782 79.7303 48.5862 80.3011 48.5659 81.0144V92.3277C48.5862 93.0208 49.1578 93.5916 49.8722 93.5916H50.1376Z" fill="#151515"/>
<path d="M33.6123 79.5264L37.6537 79.5468C40.5316 79.5468 42.1033 80.9126 42.1033 82.951C42.1033 84.6836 41.0012 85.7232 39.8377 86.0493C42.0216 86.3756 43.3483 87.9655 43.3483 89.9835C43.3483 92.287 41.6339 93.8158 38.5927 93.8158H33.6123V93.6119H33.8777C34.5716 93.6119 35.1635 93.0412 35.184 92.3277V81.0144C35.184 80.3011 34.5716 79.7303 33.8777 79.7303H33.6123V79.5264ZM36.5107 93.0615H38.511C40.6133 93.082 41.8176 91.8997 41.8176 89.8205C41.8176 86.7833 39.1846 86.2736 37.2046 86.2736V86.0698C38.4498 86.0901 40.5724 85.7232 40.5724 83.0936C40.5724 81.2591 39.5315 80.1991 37.5925 80.1991H36.5107V93.0615Z" fill="#151515"/>
<path d="M24.9206 79.2412C28.6893 79.2412 31.2725 82.2172 31.2725 86.661C31.2725 91.1252 28.6893 94.0809 24.9206 94.0809C21.1521 94.0809 18.5688 91.1252 18.5688 86.661C18.5688 82.2172 21.1521 79.2412 24.9206 79.2412ZM24.9206 93.4897C27.9286 93.4897 29.9279 90.7583 29.9279 86.6814C29.9279 82.5841 27.9286 79.8527 24.9206 79.8527C21.9128 79.8527 19.9135 82.5841 19.9135 86.6814C19.9135 90.7583 21.9128 93.4897 24.9206 93.4897Z" fill="#151515"/>
<path d="M12.1669 79.5265H16.2292V79.7305H15.8546C15.2037 79.7305 14.6713 80.2808 14.6319 80.9534V91.4921C14.6319 92.7967 14.8291 94.1013 14.8291 94.1013H14.6516L3.8844 82.2377V92.389C3.90405 93.0617 4.43659 93.6121 5.10698 93.6121H5.46196V93.8158H1.39966L1.41931 93.6121H1.77429C2.44481 93.6121 2.97722 93.0617 2.99701 92.3686V81.7687C2.99701 80.3827 2.81945 79.2412 2.81945 79.2412H2.99701L13.7445 91.0844V80.9738C13.7248 80.3011 13.1923 79.7305 12.5219 79.7305H12.1669V79.5265Z" fill="#151515"/>
<path d="M50.6094 26.937C50.5436 27.0566 50.4781 27.1844 50.4127 27.3206C50.7654 27.5194 51.0596 27.8061 51.2642 28.1498C51.3814 28.0817 51.5065 28.0063 51.6374 27.9244C51.3902 27.5134 51.0349 27.1714 50.6094 26.937ZM51.2576 30.4314C51.0525 30.772 50.7592 31.0558 50.4079 31.2533C50.4667 31.3707 50.5348 31.4975 50.6143 31.6312C51.0447 31.3926 51.4034 31.0441 51.6501 30.6254C51.528 30.5604 51.3967 30.4957 51.2576 30.4314ZM47.2437 30.4258C47.1045 30.4897 46.9736 30.5543 46.8511 30.619C47.0979 31.0411 47.4585 31.392 47.8918 31.6321C47.962 31.5155 48.0332 31.3908 48.1039 31.2572C47.7478 31.0587 47.4501 30.7711 47.2437 30.4258ZM47.8352 26.971C47.4338 27.2058 47.0987 27.5371 46.8629 27.9317C46.9942 28.0135 47.1194 28.0889 47.2366 28.1567C47.4377 27.816 47.7272 27.5305 48.0745 27.3309C48.0024 27.2194 47.923 27.0986 47.8352 26.971Z" fill="#151515"/>
<path d="M51.81 30.7131C51.5478 31.1592 51.1662 31.5307 50.7082 31.7857C50.7811 31.9014 50.8618 32.0214 50.9506 32.1436C51.4613 31.8534 51.8872 31.4369 52.1836 30.9381C52.0712 30.8653 51.9464 30.7894 51.81 30.7131ZM46.6908 30.7062C46.5542 30.7829 46.4291 30.8583 46.3162 30.9308C46.6122 31.4318 47.039 31.8504 47.5506 32.1413C47.63 32.0343 47.7125 31.9156 47.796 31.7853C47.3358 31.5291 46.953 31.1553 46.6908 30.7062ZM50.9251 26.4136C50.8509 26.5245 50.775 26.6463 50.6976 26.7799C51.1491 27.0289 51.5272 27.3911 51.7906 27.8265C51.9082 27.7502 52.0295 27.6688 52.1528 27.5822C51.8529 27.098 51.4292 26.6943 50.9251 26.4136ZM47.4781 26.4723C47.0157 26.7508 46.6267 27.1349 46.347 27.5899C46.4703 27.6764 46.5916 27.7574 46.7092 27.8337C46.9587 27.4194 47.3113 27.071 47.7323 26.8228C47.6529 26.7098 47.5682 26.5923 47.4781 26.4723Z" fill="#151515"/>
<path d="M47.9774 28.8841C47.9774 28.8841 46.5376 28.2494 45.2602 27.1216C45.2602 27.1216 44.1869 28.6442 45.2602 31.3765C45.2602 31.3765 46.1503 30.4131 48.0187 29.8004L47.9774 28.8841Z" fill="#151515"/>
<path d="M50.5112 28.8841C50.5112 28.8841 51.9511 28.2494 53.2284 27.1216C53.2284 27.1216 54.3016 28.6442 53.2284 31.3765C53.2284 31.3765 52.3384 30.4131 50.47 29.8004L50.5112 28.8841Z" fill="#151515"/>
<path d="M48.7919 27.9386C48.7919 27.9386 48.0687 26.5621 46.9126 25.3156C46.9126 25.3156 48.749 24.1865 51.5487 25.2337C51.5487 25.2337 50.5795 25.9352 49.8309 27.9023L48.7919 27.9386Z" fill="#151515"/>
<path d="M49.7931 30.5405C49.7931 30.5405 50.1498 31.9557 51.5176 33.2451C51.5176 33.2451 49.7382 34.2783 46.9385 33.2309C46.9385 33.2309 47.9893 32.4939 48.7542 30.5766L49.7931 30.5405Z" fill="#151515"/>
<path d="M50.0055 30.6367C49.9177 30.6809 49.8285 30.7155 49.7385 30.7413C49.5094 30.8077 49.2735 30.8154 49.0333 30.7695C48.9912 30.7619 48.9489 30.752 48.9064 30.7408C48.5085 30.6345 48.1959 30.4104 47.9895 30.0698C47.586 29.403 47.7859 28.5326 48.4362 28.0762C48.6294 27.9408 48.8431 27.8513 49.0632 27.8067C49.2999 27.7587 49.5431 27.7621 49.7758 27.8156C50.0884 27.8872 50.3814 28.0492 50.6119 28.2965C50.6176 28.3025 50.622 28.3098 50.6273 28.3162C50.5917 28.2939 50.5601 28.2677 50.5262 28.245C50.2795 28.0775 50.0196 27.9789 49.7464 27.9558C49.5576 27.9399 49.3626 27.9601 49.1611 28.0183C49.1308 28.0269 49.101 28.0368 49.072 28.0475C48.4805 28.2605 48.1199 28.8292 48.2165 29.4231C48.2873 29.8585 48.5432 30.1645 48.9828 30.3114C49.3842 30.4456 49.804 30.3354 50.0688 30.0406C50.3063 29.7758 50.3322 29.3768 50.1262 29.0888C50.0068 28.9222 49.8457 28.8193 49.627 28.8193C49.4873 28.8189 49.3626 28.8591 49.2682 28.9628C49.1743 29.0657 49.158 29.2341 49.2317 29.3464C49.2313 29.3292 49.2305 29.3147 49.2305 29.3009C49.2296 29.1869 49.313 29.0443 49.4812 29.0464C49.5378 29.0469 49.59 29.0622 49.6376 29.0915C49.8171 29.1999 49.9054 29.4458 49.8259 29.6339C49.7434 29.8289 49.5818 29.9245 49.3679 29.9412C49.0939 29.9626 48.8352 29.8045 48.7184 29.5504C48.5757 29.2414 48.6549 28.8317 48.9977 28.5794C49.2423 28.3998 49.5229 28.3479 49.8197 28.411C50.2838 28.5095 50.5723 28.7928 50.6857 29.2286C50.831 29.7848 50.5447 30.3667 50.0055 30.6367Z" fill="#151515"/>
<mask id="mask0_2996_92306" style="mask-type:luminance" maskUnits="userSpaceOnUse" x="27" y="41" width="10" height="10">
<path d="M36.9524 41.6831H27.9006V50.723H36.9524V41.6831Z" fill="white"/>
</mask>
<g mask="url(#mask0_2996_92306)">
<path d="M33.8113 43.8618C33.7446 43.9831 33.6781 44.1126 33.6117 44.2508C33.9695 44.4525 34.2679 44.7434 34.4754 45.0921C34.5945 45.0229 34.7214 44.9464 34.8541 44.8634C34.6034 44.4465 34.243 44.0996 33.8113 43.8618ZM34.4687 47.4064C34.2608 47.752 33.9632 48.0399 33.6069 48.2403C33.6665 48.3593 33.7356 48.488 33.8162 48.6236C34.2527 48.3816 34.6166 48.0282 34.8671 47.6034C34.7432 47.5372 34.6101 47.4717 34.4687 47.4064ZM30.397 47.4008C30.2558 47.4656 30.1231 47.5313 29.9988 47.5968C30.2491 48.0251 30.6148 48.3811 31.0545 48.6246C31.1257 48.5063 31.1979 48.3798 31.2696 48.2442C30.9085 48.0429 30.6064 47.7512 30.397 47.4008ZM30.9971 43.8962C30.5899 44.1343 30.2501 44.4704 30.0109 44.8708C30.144 44.9538 30.271 45.0303 30.3899 45.0991C30.5939 44.7535 30.8874 44.4639 31.2398 44.2613C31.1667 44.1483 31.0862 44.0256 30.9971 43.8962Z" fill="#151515"/>
<path d="M35.0291 47.6924C34.7632 48.145 34.3762 48.522 33.9115 48.7806C33.9855 48.8979 34.0675 49.0197 34.1575 49.1436C34.6755 48.8492 35.1076 48.4268 35.4082 47.9207C35.2942 47.8468 35.1677 47.7698 35.0291 47.6924ZM29.8362 47.6854C29.6977 47.7634 29.5707 47.8398 29.4563 47.9133C29.7565 48.4215 30.1894 48.8462 30.7084 49.1414C30.789 49.0327 30.8727 48.9123 30.9573 48.7802C30.4906 48.5202 30.1022 48.1412 29.8362 47.6854ZM34.1316 43.3311C34.0563 43.4435 33.9792 43.567 33.9009 43.7027C34.3587 43.9552 34.7423 44.3226 35.0096 44.7643C35.1289 44.6869 35.2518 44.6042 35.377 44.5164C35.0727 44.0252 34.6429 43.6157 34.1316 43.3311ZM30.6348 43.3905C30.1658 43.6732 29.7711 44.0626 29.4874 44.5243C29.6125 44.6122 29.7356 44.6943 29.8549 44.7717C30.1079 44.3513 30.4656 43.9979 30.8928 43.7461C30.8121 43.6314 30.7263 43.5123 30.6348 43.3905Z" fill="#151515"/>
<path d="M31.1413 45.8369C31.1413 45.8369 29.6807 45.193 28.385 44.0488C28.385 44.0488 27.2963 45.5934 28.385 48.3651C28.385 48.3651 29.2878 47.3878 31.1833 46.7662L31.1413 45.8369Z" fill="#151515"/>
<path d="M33.7117 45.8367C33.7117 45.8367 35.1724 45.193 36.4682 44.0488C36.4682 44.0488 37.5569 45.5933 36.4682 48.3651C36.4682 48.3651 35.5653 47.3878 33.6699 46.7662L33.7117 45.8367Z" fill="#151515"/>
<path d="M31.9675 44.8782C31.9675 44.8782 31.2339 43.4818 30.061 42.2173C30.061 42.2173 31.9238 41.0718 34.7639 42.1342C34.7639 42.1342 33.7809 42.8459 33.0213 44.8411L31.9675 44.8782Z" fill="#151515"/>
<path d="M32.9831 47.5176C32.9831 47.5176 33.345 48.953 34.7324 50.2611C34.7324 50.2611 32.9275 51.3092 30.0874 50.2468C30.0874 50.2468 31.1533 49.4991 31.9293 47.5542L32.9831 47.5176Z" fill="#151515"/>
<path d="M33.1988 47.6151C33.1096 47.6598 33.0192 47.695 32.9278 47.7212C32.6953 47.7885 32.4562 47.7963 32.2126 47.7498C32.1698 47.742 32.127 47.732 32.0838 47.7208C31.6802 47.6129 31.3631 47.3856 31.1537 47.04C30.7443 46.3635 30.9471 45.4806 31.6067 45.0177C31.8027 44.8803 32.0197 44.7894 32.2428 44.7442C32.4829 44.6955 32.7296 44.699 32.9657 44.7534C33.2829 44.8259 33.5799 44.9903 33.8138 45.2411C33.8197 45.2472 33.8241 45.2546 33.8294 45.2611C33.7933 45.2385 33.7613 45.212 33.727 45.1889C33.4767 45.0189 33.213 44.919 32.9359 44.8955C32.7444 44.8793 32.5466 44.8998 32.3422 44.959C32.3114 44.9676 32.2811 44.9776 32.2517 44.9885C31.6517 45.2046 31.286 45.7814 31.384 46.384C31.4558 46.8256 31.7154 47.136 32.1613 47.2851C32.5684 47.4212 32.9943 47.3094 33.2629 47.0103C33.5038 46.7417 33.53 46.3369 33.3213 46.0449C33.2 45.8758 33.0365 45.7714 32.8148 45.7714C32.673 45.771 32.5466 45.8119 32.4507 45.917C32.3556 46.0214 32.339 46.1922 32.4138 46.3062C32.4134 46.2888 32.4126 46.274 32.4126 46.2601C32.4116 46.1444 32.4962 45.9997 32.6669 46.0018C32.7243 46.0023 32.7773 46.0179 32.8254 46.0474C33.0077 46.1575 33.0972 46.4069 33.0165 46.5978C32.9328 46.7956 32.7688 46.8926 32.5519 46.9096C32.274 46.9313 32.0116 46.7708 31.8931 46.513C31.7483 46.1997 31.8286 45.7841 32.1765 45.528C32.4245 45.3459 32.7091 45.2933 33.0103 45.3572C33.4811 45.4571 33.7738 45.7445 33.8887 46.1866C34.0361 46.7509 33.7457 47.3412 33.1988 47.6151Z" fill="#151515"/>
</g>
<mask id="mask1_2996_92306" style="mask-type:luminance" maskUnits="userSpaceOnUse" x="39" y="0" width="4" height="4">
<path d="M42.5112 0.138184H39.4297V3.21559H42.5112V0.138184Z" fill="white"/>
</mask>
<g mask="url(#mask1_2996_92306)">
<path d="M41.4421 0.879883C41.4194 0.921222 41.3968 0.965344 41.3743 1.01239C41.4961 1.08101 41.5977 1.17998 41.6683 1.2987C41.7087 1.27518 41.752 1.24915 41.7972 1.2209C41.7118 1.07892 41.5892 0.960891 41.4421 0.879883ZM41.666 2.08665C41.5952 2.20427 41.4938 2.30226 41.3726 2.37046C41.3929 2.41096 41.4165 2.45481 41.4438 2.50102C41.5925 2.41848 41.7164 2.29822 41.8016 2.1536C41.7595 2.13119 41.714 2.10878 41.666 2.08665ZM40.2799 2.08471C40.2318 2.1067 40.1867 2.1291 40.1443 2.15138C40.2296 2.29725 40.354 2.41834 40.5037 2.5013C40.528 2.46107 40.5525 2.41792 40.5769 2.37185C40.454 2.30323 40.3511 2.20399 40.2799 2.08471ZM40.4841 0.891575C40.3455 0.972722 40.2299 1.08714 40.1485 1.2234C40.1938 1.25166 40.237 1.27769 40.2774 1.30107C40.3469 1.18345 40.4469 1.08491 40.5667 1.01587C40.5419 0.977455 40.5145 0.935698 40.4841 0.891575Z" fill="#151515"/>
<path d="M41.8566 2.18395C41.7662 2.33803 41.6343 2.46636 41.4761 2.55433C41.5014 2.59428 41.5292 2.63576 41.5599 2.67793C41.7362 2.57772 41.8834 2.43393 41.9857 2.26162C41.9468 2.23656 41.9037 2.21026 41.8566 2.18395ZM40.0888 2.18158C40.0417 2.20803 39.9985 2.2342 39.9595 2.25911C40.0616 2.43212 40.2091 2.57674 40.3857 2.67724C40.4131 2.64021 40.4417 2.59929 40.4706 2.55419C40.3115 2.46581 40.1794 2.33664 40.0888 2.18158ZM41.5511 0.699219C41.5255 0.737496 41.4993 0.77953 41.4725 0.825741C41.6285 0.91176 41.7589 1.03675 41.8499 1.18708C41.8906 1.16077 41.9324 1.13265 41.9751 1.10273C41.8715 0.935562 41.7252 0.796094 41.5511 0.699219ZM40.3607 0.71954C40.201 0.81572 40.0666 0.948228 39.9701 1.10537C40.0127 1.1353 40.0545 1.16327 40.0952 1.18958C40.1814 1.0465 40.303 0.926236 40.4485 0.840496C40.4211 0.801523 40.3918 0.760879 40.3607 0.71954Z" fill="#151515"/>
<path d="M40.5333 1.55252C40.5333 1.55252 40.036 1.33344 39.5949 0.943848C39.5949 0.943848 39.2243 1.46971 39.5949 2.41327C39.5949 2.41327 39.9022 2.08061 40.5475 1.8689L40.5333 1.55252Z" fill="#151515"/>
<path d="M41.4083 1.55252C41.4083 1.55252 41.9055 1.33344 42.3467 0.943848C42.3467 0.943848 42.7173 1.46971 42.3467 2.41327C42.3467 2.41327 42.0392 2.08061 41.394 1.8689L41.4083 1.55252Z" fill="#151515"/>
<path d="M40.8144 1.22605C40.8144 1.22605 40.5647 0.750718 40.1655 0.320206C40.1655 0.320206 40.7997 -0.0698024 41.7665 0.29195C41.7665 0.29195 41.4319 0.534139 41.1732 1.21338L40.8144 1.22605Z" fill="#151515"/>
<path d="M41.1601 2.12451C41.1601 2.12451 41.2833 2.61307 41.7556 3.05847C41.7556 3.05847 41.1411 3.41521 40.1743 3.0536C40.1743 3.0536 40.5372 2.79902 40.8014 2.1369L41.1601 2.12451Z" fill="#151515"/>
<path d="M41.2335 2.15786C41.2031 2.17317 41.1723 2.18514 41.1413 2.19405C41.0621 2.21688 40.9807 2.21966 40.8978 2.20379C40.8831 2.20115 40.8687 2.19767 40.8539 2.19391C40.7166 2.15717 40.6086 2.07977 40.5374 1.96216C40.398 1.7318 40.467 1.43129 40.6915 1.27359C40.7583 1.22682 40.8321 1.19592 40.9081 1.18061C40.9898 1.16405 41.0738 1.16516 41.1542 1.18368C41.2621 1.20845 41.3633 1.26427 41.4429 1.34973C41.4448 1.35182 41.4464 1.35432 41.4482 1.35655C41.4359 1.34889 41.425 1.33985 41.4133 1.33191C41.3282 1.27415 41.2383 1.24005 41.1441 1.23211C41.0788 1.22655 41.0115 1.23351 40.9418 1.25369C40.9314 1.25661 40.9211 1.26009 40.9112 1.26371C40.7068 1.33734 40.5824 1.53374 40.6157 1.73876C40.6401 1.88909 40.7286 1.99473 40.8804 2.04553C41.0189 2.09188 41.1638 2.05389 41.2553 1.952C41.3374 1.86055 41.3463 1.72276 41.2752 1.62337C41.234 1.56575 41.1783 1.53026 41.1028 1.53026C41.0546 1.53012 41.0115 1.54404 40.9789 1.57981C40.9464 1.6153 40.9408 1.67348 40.9664 1.71232C40.9662 1.70633 40.9658 1.70132 40.9658 1.69659C40.9655 1.6572 40.9944 1.60792 41.0525 1.60876C41.072 1.6089 41.09 1.61419 41.1064 1.62421C41.1684 1.66165 41.199 1.74656 41.1715 1.81156C41.1429 1.87892 41.0872 1.91191 41.0133 1.91776C40.9187 1.92514 40.8294 1.87043 40.7891 1.78274C40.7397 1.67599 40.7671 1.53457 40.8855 1.44744C40.97 1.38536 41.0668 1.36754 41.1693 1.38926C41.3296 1.42322 41.4292 1.52107 41.4684 1.67153C41.5185 1.86361 41.4197 2.0646 41.2335 2.15786Z" fill="#151515"/>
</g>
<path d="M78.6064 100.912L78.6064 101.051L59.9304 101.051L59.9304 100.912L78.6064 100.912Z" fill="#151515"/>
<path d="M20.0698 100.912L20.0698 101.051L1.3938 101.051L1.3938 100.912L20.0698 100.912Z" fill="#151515"/>
</g>
<defs>
<clipPath id="clip0_2996_92306">
<rect width="80" height="103" fill="white"/>
</clipPath>
</defs>
</svg>
