<svg width="188" height="197" viewBox="0 0 188 197" fill="none" xmlns="http://www.w3.org/2000/svg">
<g opacity="0.04">
<path d="M97.4764 146.854C98.669 154.018 102.486 169.778 108.21 175.509C107.027 179.062 102.557 188.253 94.1044 196.791V197C94.0699 196.965 94.0362 196.93 94.0018 196.896C93.9675 196.93 93.9338 196.965 93.8993 197V196.791C85.4469 188.253 80.9767 179.062 79.7938 175.509C85.5178 169.778 89.3337 154.018 90.5262 146.854H97.4764ZM58.329 139.69C55.944 144.466 53.3203 154.734 61.9061 157.6C70.4922 160.465 75.0242 151.63 76.2167 146.854H83.371C82.1785 158.794 75.5008 180.524 58.329 171.928C41.1568 163.331 51.1739 146.854 58.329 139.69ZM129.675 139.69C136.83 146.854 146.847 163.331 129.675 171.928C112.503 180.524 105.824 158.794 104.632 146.854H111.787C112.979 151.63 117.511 160.465 126.098 157.6C134.683 154.734 132.06 144.466 129.675 139.69ZM115.354 127.519C119.311 127.519 122.518 130.725 122.518 134.682C122.518 138.638 119.311 141.846 115.354 141.846H72.4413C68.4849 141.846 65.2772 138.638 65.2772 134.682C65.2774 130.725 68.485 127.519 72.4413 127.519H115.354ZM1.08191 100.299C9.71481 68.0579 76.2163 75.2257 86.9491 121.789H72.6268C67.8567 115.819 54.0234 103.88 36.8514 103.88C15.3862 103.88 18.964 132.8 44.0067 125.371C28.5061 132.535 -6.58834 128.945 1.08191 100.299ZM101.055 121.789C111.787 75.2258 178.289 68.0579 186.922 100.299C194.592 128.945 159.498 132.535 143.997 125.371C169.04 132.8 172.617 103.88 151.152 103.88C133.98 103.88 120.147 115.819 115.377 121.789H101.055ZM94.1044 0.344727C101.338 12.4736 116.107 40.28 118.942 57.3096C122.52 78.8 111.787 82.3817 104.632 93.127C99.2008 101.283 95.489 114.384 94.1044 120.803V121.782C94.0729 121.625 94.036 121.462 94.0009 121.293C93.9658 121.462 93.9308 121.625 93.8993 121.782V120.807C92.5153 114.389 88.8029 101.285 83.371 93.127C76.216 82.3819 65.4841 78.7998 69.0614 57.3096C71.8963 40.2799 86.666 12.4736 93.8993 0.344727V0C93.9334 0.0568667 93.9674 0.114275 94.0018 0.171875C94.0362 0.114314 94.0703 0.0568278 94.1044 0V0.344727Z" fill="white"/>
</g>
</svg>
