<svg width="207" height="217" viewBox="0 0 207 217" fill="none" xmlns="http://www.w3.org/2000/svg">
<g opacity="0.4">
<path d="M107.327 161.764C108.64 169.655 112.842 187.014 119.145 193.327C117.842 197.241 112.92 207.365 103.612 216.771V217C103.574 216.962 103.538 216.923 103.5 216.885C103.462 216.923 103.426 216.962 103.388 217V216.771C94.0806 207.365 89.159 197.241 87.8564 193.327C94.1588 187.014 98.3598 169.655 99.6729 161.764H107.327ZM64.2217 153.873C61.5957 159.134 58.7071 170.443 68.1602 173.6C77.614 176.756 82.604 167.024 83.917 161.764H91.7949C90.4819 174.915 83.1292 198.851 64.2217 189.382C45.3141 179.913 56.3435 161.764 64.2217 153.873ZM142.779 153.873C150.657 161.764 161.686 179.913 142.779 189.382C123.872 198.851 116.518 174.915 115.205 161.764H123.084C124.397 167.024 129.386 176.756 138.84 173.6C148.293 170.443 145.405 159.134 142.779 153.873ZM127.009 140.465C131.367 140.465 134.899 143.998 134.899 148.355C134.899 152.713 131.367 156.247 127.009 156.247H79.7646C75.4068 156.247 71.874 152.713 71.874 148.355C71.8741 143.998 75.4068 140.465 79.7646 140.465H127.009ZM1.18945 110.481C10.6949 74.9672 83.9171 82.8634 95.7344 134.154H79.9639C74.7117 127.579 59.4809 114.427 40.5732 114.427C16.939 114.427 20.878 146.282 48.4512 138.1C31.3838 145.99 -7.25601 142.036 1.18945 110.481ZM111.267 134.154C123.084 82.8634 196.306 74.9672 205.812 110.481C214.257 142.036 175.616 145.99 158.549 138.1C186.122 146.282 190.061 114.427 166.427 114.427C147.519 114.427 132.288 127.579 127.036 134.154H111.267ZM103.612 0.376953C111.576 13.7357 127.84 44.3672 130.962 63.127C134.901 86.7997 123.083 90.7457 115.205 102.582C109.223 111.57 105.135 126.009 103.612 133.076V134.146C103.578 133.973 103.538 133.794 103.5 133.609C103.462 133.794 103.422 133.973 103.388 134.146V133.072C101.864 126.003 97.7761 111.568 91.7949 102.582C83.9167 90.7457 72.1 86.7997 76.0391 63.127C79.1608 44.3673 95.4239 13.7358 103.388 0.376953V0C103.425 0.0623024 103.462 0.125375 103.5 0.188477C103.538 0.12532 103.575 0.0623555 103.612 0V0.376953Z" fill="#E9E9E9"/>
</g>
</svg>
