<svg width="20" height="20" viewBox="0 0 20 20" fill="none" xmlns="http://www.w3.org/2000/svg">
<path d="M18.3333 9.99935V7.49935C18.3333 3.33268 16.6666 1.66602 12.5 1.66602H7.49996C3.33329 1.66602 1.66663 3.33268 1.66663 7.49935V12.4993C1.66663 16.666 3.33329 18.3327 7.49996 18.3327H9.99996" stroke="#808080" stroke-linecap="round" stroke-linejoin="round"/>
<path d="M17.4666 14.8667L16.1083 15.3251C15.7333 15.4501 15.4333 15.7417 15.3083 16.1251L14.8499 17.4834C14.4583 18.6584 12.8083 18.6334 12.4416 17.4584L10.8999 12.5001C10.5999 11.5167 11.5083 10.6001 12.4833 10.9084L17.4499 12.4501C18.6166 12.8167 18.6333 14.4751 17.4666 14.8667Z" stroke="#808080" stroke-linecap="round" stroke-linejoin="round"/>
</svg>
