<svg width="20" height="20" viewBox="0 0 20 20" fill="none" xmlns="http://www.w3.org/2000/svg">
<path d="M10.3083 1.79219L17.8083 4.79216C18.1 4.90883 18.3333 5.25883 18.3333 5.56716V8.33386C18.3333 8.7922 17.9583 9.1672 17.5 9.1672H2.49996C2.04163 9.1672 1.66663 8.7922 1.66663 8.33386V5.56716C1.66663 5.25883 1.89996 4.90883 2.19163 4.79216L9.69162 1.79219C9.85829 1.72552 10.1416 1.72552 10.3083 1.79219Z" stroke="#808080" stroke-miterlimit="10" stroke-linecap="round" stroke-linejoin="round"/>
<path d="M18.3333 18.3333H1.66663V15.8333C1.66663 15.375 2.04163 15 2.49996 15H17.5C17.9583 15 18.3333 15.375 18.3333 15.8333V18.3333Z" stroke="#808080" stroke-miterlimit="10" stroke-linecap="round" stroke-linejoin="round"/>
<path d="M3.33337 14.9993V9.16602" stroke="#808080" stroke-miterlimit="10" stroke-linecap="round" stroke-linejoin="round"/>
<path d="M6.66663 14.9993V9.16602" stroke="#808080" stroke-miterlimit="10" stroke-linecap="round" stroke-linejoin="round"/>
<path d="M10 14.9993V9.16602" stroke="#808080" stroke-miterlimit="10" stroke-linecap="round" stroke-linejoin="round"/>
<path d="M13.3334 14.9993V9.16602" stroke="#808080" stroke-miterlimit="10" stroke-linecap="round" stroke-linejoin="round"/>
<path d="M16.6666 14.9993V9.16602" stroke="#808080" stroke-miterlimit="10" stroke-linecap="round" stroke-linejoin="round"/>
<path d="M0.833374 18.334H19.1667" stroke="#808080" stroke-miterlimit="10" stroke-linecap="round" stroke-linejoin="round"/>
<path d="M10 7.08398C10.6903 7.08398 11.25 6.52434 11.25 5.83398C11.25 5.14363 10.6903 4.58398 10 4.58398C9.30967 4.58398 8.75 5.14363 8.75 5.83398C8.75 6.52434 9.30967 7.08398 10 7.08398Z" stroke="#808080" stroke-miterlimit="10" stroke-linecap="round" stroke-linejoin="round"/>
</svg>
