<svg width="20" height="20" viewBox="0 0 20 20" fill="none" xmlns="http://www.w3.org/2000/svg">
<path d="M1.6665 7.5013V5.83464C1.6665 3.33464 3.33317 1.66797 5.83317 1.66797H14.1665C16.6665 1.66797 18.3332 3.33464 18.3332 5.83464V7.5013" stroke="#151515" stroke-miterlimit="10" stroke-linecap="round" stroke-linejoin="round"/>
<path d="M1.6665 12.5V14.1667C1.6665 16.6667 3.33317 18.3333 5.83317 18.3333H14.1665C16.6665 18.3333 18.3332 16.6667 18.3332 14.1667V12.5" stroke="#151515" stroke-miterlimit="10" stroke-linecap="round" stroke-linejoin="round"/>
<path d="M5.5835 7.71484L10.0002 10.2732L14.3835 7.73153" stroke="#151515" stroke-linecap="round" stroke-linejoin="round"/>
<path d="M10 14.8073V10.2656" stroke="#151515" stroke-linecap="round" stroke-linejoin="round"/>
<path d="M8.96687 5.23984L6.30019 6.7232C5.70019 7.05654 5.2002 7.89819 5.2002 8.58988V11.4149C5.2002 12.1065 5.69185 12.9482 6.30019 13.2815L8.96687 14.7649C9.53354 15.0815 10.4669 15.0815 11.0419 14.7649L13.7085 13.2815C14.3085 12.9482 14.8085 12.1065 14.8085 11.4149V8.58988C14.8085 7.89819 14.3169 7.05654 13.7085 6.7232L11.0419 5.23984C10.4669 4.91484 9.53354 4.91484 8.96687 5.23984Z" stroke="#151515" stroke-linecap="round" stroke-linejoin="round"/>
</svg>
