<svg width="20" height="20" viewBox="0 0 20 20" fill="none" xmlns="http://www.w3.org/2000/svg">
<path d="M7.22656 11.9422C7.22656 13.0172 8.05156 13.8838 9.07658 13.8838H11.1682C12.0599 13.8838 12.7849 13.1255 12.7849 12.1922C12.7849 11.1755 12.3432 10.8172 11.6849 10.5838L8.32655 9.41715C7.66822 9.18382 7.22656 8.82549 7.22656 7.80885C7.22656 6.87552 7.95155 6.11719 8.84325 6.11719H10.9349C11.9599 6.11719 12.7849 6.98385 12.7849 8.05885" stroke="#808080" stroke-linecap="round" stroke-linejoin="round"/>
<path d="M10 5V15" stroke="#808080" stroke-linecap="round" stroke-linejoin="round"/>
<path d="M9.99996 18.3327C14.6023 18.3327 18.3333 14.6017 18.3333 9.99935C18.3333 5.39697 14.6023 1.66602 9.99996 1.66602C5.39758 1.66602 1.66663 5.39697 1.66663 9.99935C1.66663 14.6017 5.39758 18.3327 9.99996 18.3327Z" stroke="#808080" stroke-linecap="round" stroke-linejoin="round"/>
</svg>
