<svg width="18" height="18" viewBox="0 0 18 18" fill="none" xmlns="http://www.w3.org/2000/svg">
<path d="M13.5001 5.37C13.4551 5.3625 13.4026 5.3625 13.3576 5.37C12.3226 5.3325 11.4976 4.485 11.4976 3.435C11.4976 2.3625 12.3601 1.5 13.4326 1.5C14.5051 1.5 15.3676 2.37 15.3676 3.435C15.3601 4.485 14.5351 5.3325 13.5001 5.37Z" stroke="white" stroke-linecap="round" stroke-linejoin="round"/>
<path d="M12.7275 10.8301C13.755 11.0026 14.8875 10.8226 15.6825 10.2901C16.74 9.5851 16.74 8.43009 15.6825 7.72509C14.88 7.19262 13.7325 7.01262 12.705 7.19262" stroke="white" stroke-linecap="round" stroke-linejoin="round"/>
<path d="M4.47749 5.37C4.52249 5.3625 4.57499 5.3625 4.61999 5.37C5.65499 5.3325 6.47999 4.485 6.47999 3.435C6.47999 2.3625 5.61749 1.5 4.54499 1.5C3.47249 1.5 2.60999 2.37 2.60999 3.435C2.61749 4.485 3.44249 5.3325 4.47749 5.37Z" stroke="white" stroke-linecap="round" stroke-linejoin="round"/>
<path d="M5.24996 10.8301C4.22246 11.0026 3.08996 10.8226 2.29496 10.2901C1.23746 9.5851 1.23746 8.43009 2.29496 7.72509C3.09746 7.19262 4.24496 7.01262 5.27246 7.19262" stroke="white" stroke-linecap="round" stroke-linejoin="round"/>
<path d="M8.99997 10.9716C8.95497 10.9641 8.90247 10.9641 8.85747 10.9716C7.82247 10.9341 6.99744 10.0866 6.99744 9.03659C6.99744 7.96409 7.85997 7.10156 8.93247 7.10156C10.005 7.10156 10.8675 7.97159 10.8675 9.03659C10.86 10.0866 10.035 10.9416 8.99997 10.9716Z" stroke="white" stroke-linecap="round" stroke-linejoin="round"/>
<path d="M6.81742 13.3345C5.75992 14.0395 5.75992 15.1945 6.81742 15.8995C8.01744 16.702 9.98244 16.702 11.1824 15.8995C12.2399 15.1945 12.2399 14.0395 11.1824 13.3345C9.98994 12.5395 8.01744 12.5395 6.81742 13.3345Z" stroke="white" stroke-linecap="round" stroke-linejoin="round"/>
</svg>
