<svg width="48" height="48" viewBox="0 0 48 48" fill="none" xmlns="http://www.w3.org/2000/svg">
<g clip-path="url(#clip0_2719_26876)">
<path d="M24 12C26.4853 12 28.5 9.98528 28.5 7.5C28.5 5.01472 26.4853 3 24 3C21.5147 3 19.5 5.01472 19.5 7.5C19.5 9.98528 21.5147 12 24 12Z" stroke="#808080" stroke-width="1.5" stroke-linecap="round" stroke-linejoin="round"/>
<path d="M36.5 18.7044L40.6868 15.2938C42.8825 14.2813 42.1625 11 39.7493 11L23.9993 15L8.24933 11C5.83996 11 5.11996 14.2813 7.31183 15.2938L9 16.669" stroke="#808080" stroke-width="1.5" stroke-linecap="round" stroke-linejoin="round"/>
<path d="M15 23C16.6569 23 18 21.6569 18 20C18 18.3431 16.6569 17 15 17C13.3431 17 12 18.3431 12 20C12 21.6569 13.3431 23 15 23Z" stroke="#808080" stroke-width="1.5" stroke-linecap="round" stroke-linejoin="round"/>
<path d="M3.87452 25.7769C2.41333 25.1221 2.89331 23 4.4995 23L14.9991 25.5869L25.4987 23C27.1074 23 27.5874 25.1221 26.1237 25.7769L18.9989 31.4075L21.8576 41.9489C22.019 42.2977 22.0324 42.6941 21.8949 43.0524C21.7575 43.4107 21.4802 43.7022 21.123 43.8637C20.7658 44.0253 20.3574 44.0439 19.9862 43.9157C19.6149 43.7875 19.3105 43.5227 19.1389 43.1785L14.9991 36.2581L10.8593 43.1785C10.6876 43.5227 10.3833 43.7875 10.012 43.9157C9.64076 44.0439 9.23239 44.0253 8.87521 43.8637C8.51802 43.7022 8.24073 43.4107 8.10326 43.0524C7.9658 42.6941 7.97921 42.2977 8.14061 41.9489L10.9992 31.4075L3.87452 25.7769Z" stroke="#808080" stroke-width="1.5" stroke-linecap="round" stroke-linejoin="round"/>
<path d="M35.5 28C36.8807 28 38 26.8807 38 25.5C38 24.1193 36.8807 23 35.5 23C34.1193 23 33 24.1193 33 25.5C33 26.8807 34.1193 28 35.5 28Z" stroke="#808080" stroke-width="1.5" stroke-linecap="round" stroke-linejoin="round"/>
<path d="M26.6923 30.1157C25.5356 29.6168 25.9155 28 27.1871 28L35.4993 29.971L43.8115 28C45.085 28 45.465 29.6168 44.3062 30.1157L38.6658 34.4058L40.9289 42.4373C41.0567 42.703 41.0673 43.005 40.9585 43.278C40.8497 43.551 40.6301 43.7731 40.3474 43.8962C40.0646 44.0192 39.7413 44.0335 39.4474 43.9358C39.1535 43.8381 38.9125 43.6363 38.7767 43.3741L35.4993 38.1014L32.2219 43.3741C32.086 43.6363 31.8451 43.8381 31.5512 43.9358C31.2573 44.0335 30.934 44.0192 30.6512 43.8962C30.3684 43.7731 30.1489 43.551 30.0401 43.278C29.9313 43.005 29.9419 42.703 30.0696 42.4373L32.3327 34.4058L26.6923 30.1157Z" stroke="#808080" stroke-width="1.5" stroke-linecap="round" stroke-linejoin="round"/>
</g>
<defs>
<clipPath id="clip0_2719_26876">
<rect width="48" height="48" fill="white"/>
</clipPath>
</defs>
</svg>
