<svg width="48" height="48" viewBox="0 0 48 48" fill="none" xmlns="http://www.w3.org/2000/svg">
<g clip-path="url(#clip0_2719_26868)">
<path d="M24 12C26.4853 12 28.5 9.98528 28.5 7.5C28.5 5.01472 26.4853 3 24 3C21.5147 3 19.5 5.01472 19.5 7.5C19.5 9.98528 21.5147 12 24 12Z" stroke="#808080" stroke-width="1.5" stroke-linecap="round" stroke-linejoin="round"/>
<path d="M7.31183 15.2938C5.11996 14.2813 5.83996 11 8.24933 11L23.9993 15L39.7493 11C42.1625 11 42.8825 14.2813 40.6868 15.2938L29.9993 24L34.2875 40.2994C34.5296 40.8387 34.5497 41.4516 34.3435 42.0056C34.1373 42.5597 33.7213 43.0103 33.1855 43.2601C32.6497 43.5099 32.0371 43.5388 31.4802 43.3405C30.9233 43.1423 30.4668 42.7328 30.2093 42.2006L23.9993 31.5L17.7893 42.2006C17.5319 42.7328 17.0754 43.1423 16.5184 43.3405C15.9615 43.5388 15.3489 43.5099 14.8131 43.2601C14.2774 43.0103 13.8614 42.5597 13.6552 42.0056C13.449 41.4516 13.4691 40.8387 13.7112 40.2994L17.9993 24L7.31183 15.2938Z" stroke="#808080" stroke-width="1.5" stroke-linecap="round" stroke-linejoin="round"/>
</g>
<defs>
<clipPath id="clip0_2719_26868">
<rect width="48" height="48" fill="white"/>
</clipPath>
</defs>
</svg>
