<svg width="20" height="20" viewBox="0 0 20 20" fill="none" xmlns="http://www.w3.org/2000/svg">
<path d="M17.5667 7.14937V12.8493C17.5667 13.7827 17.0667 14.6493 16.2584 15.1243L11.3084 17.9827C10.5 18.4493 9.50002 18.4493 8.68336 17.9827L3.73338 15.1243C2.92505 14.6577 2.42505 13.791 2.42505 12.8493V7.14937C2.42505 6.21604 2.92505 5.34934 3.73338 4.87434L8.68336 2.01602C9.49169 1.54935 10.4917 1.54935 11.3084 2.01602L16.2584 4.87434C17.0667 5.34934 17.5667 6.20771 17.5667 7.14937Z" stroke="#808080" stroke-linecap="round" stroke-linejoin="round"/>
<path d="M9.99998 9.16654C11.0724 9.16654 11.9416 8.29719 11.9416 7.22483C11.9416 6.15248 11.0724 5.2832 9.99998 5.2832C8.92765 5.2832 8.05835 6.15248 8.05835 7.22483C8.05835 8.29719 8.92765 9.16654 9.99998 9.16654Z" stroke="#808080" stroke-linecap="round" stroke-linejoin="round"/>
<path d="M13.3333 13.8827C13.3333 12.3827 11.8416 11.166 9.99996 11.166C8.15829 11.166 6.66663 12.3827 6.66663 13.8827" stroke="#808080" stroke-linecap="round" stroke-linejoin="round"/>
</svg>
