<svg width="13" height="14" viewBox="0 0 13 14" fill="none" xmlns="http://www.w3.org/2000/svg">
<path d="M12.9802 6.99837L10.2252 4.34454V5.30438H8.07284V2.98643H8.96414L6.49988 0.0195312L4.03561 2.98646H4.92689V5.3044H2.77451V4.34457L0.0195312 6.99837L2.77454 9.65219V8.69236H4.92691V11.0103H4.03564L6.49988 13.9772L8.96414 11.0103H8.07284V8.6923H10.2252V9.65216L12.9802 6.99837ZM4.26228 7.267H3.03305V6.72971H4.26228V7.267ZM6.25041 8.47785V7.26702H5.12607V6.72973H6.25041V5.51888H6.74935V6.72973H7.87369V7.26702H6.74935V8.47785H6.25041ZM6.74932 9.40808V10.7319H6.25038V9.40808H6.74932ZM6.25041 4.58865V3.26486H6.74935V4.58865H6.25041ZM9.96668 7.267H8.73745V6.72971H9.96668V7.267Z" fill="#460107"/>
<path d="M6.5 14L6.49023 13.9882L4.00644 10.9978H4.91391V8.7081H2.78774V9.68537L0 7L2.78774 4.31465V5.29193H4.91391V3.00221H4.00644L6.5 0L8.99356 3.00218H8.08607V5.2919H10.2122V4.31463L13 7L10.2122 9.68535V8.70804H8.08607V10.9978H8.99356L6.5 14ZM4.06506 11.026L6.5 13.9577L8.93497 11.026H8.05986V8.67982H10.2384V9.62224L12.9607 7L10.2384 4.37773V5.32012H8.05986V2.97396H8.93497L6.5 0.0423307L4.06503 2.97398H4.94011V5.32015H2.76153V4.37776L0.0393071 7L2.76156 9.62227V8.67988H4.94014V11.026H4.06506ZM6.76255 10.7476H6.2374V9.39561H6.76255V10.7476ZM6.26363 10.7194H6.73637V9.42383H6.26363V10.7194ZM6.76255 8.4936H6.2374V7.28277H5.11306V6.71726H6.2374V5.5064H6.76255V6.71726H7.88688V7.28277H6.76255V8.4936ZM6.26363 8.46537H6.73637V7.25455H7.86071V6.74548H6.73637V5.53462H6.26363V6.74548H5.13929V7.25455H6.26363V8.46537ZM9.97991 7.28274H8.72447V6.71723H9.97991V7.28274ZM8.75067 7.25452H9.9537V6.74545H8.75067V7.25452ZM4.27551 7.28274H3.02007V6.71723H4.27551V7.28274ZM3.04627 7.25452H4.2493V6.74545H3.04627V7.25452ZM6.76255 4.60439H6.2374V3.25238H6.76255V4.60439ZM6.26363 4.57617H6.73637V3.2806H6.26363V4.57617Z" fill="#460107"/>
</svg>
