<svg width="24" height="25" viewBox="0 0 24 25" fill="none" xmlns="http://www.w3.org/2000/svg">
<path d="M12.4434 18.6367C12.5956 19.5459 13.0829 21.5451 13.8135 22.2725C13.6625 22.7233 13.0915 23.8892 12.0127 24.9727V25C12.0081 24.9955 12.0036 24.9909 11.999 24.9863C11.9947 24.9907 11.9907 24.9957 11.9863 25V24.9727C10.9077 23.8893 10.3365 22.7233 10.1855 22.2725C10.9162 21.5453 11.4034 19.546 11.5557 18.6367H12.4434ZM7.44531 17.7275C7.1409 18.3337 6.80659 19.6364 7.90234 20C8.99825 20.3636 9.57715 19.2428 9.72949 18.6367H10.6426C10.4902 20.1519 9.63731 22.9092 7.44531 21.8184C5.25378 20.7276 6.53196 18.6368 7.44531 17.7275ZM16.5537 17.7275C17.4671 18.6367 18.7458 20.7275 16.5537 21.8184C14.3618 22.909 13.5088 20.1519 13.3564 18.6367H14.2705C14.4229 19.2428 15.0011 20.3632 16.0967 20C17.1926 19.6364 16.8582 18.3337 16.5537 17.7275ZM14.7314 16.1826C15.2333 16.1828 15.6406 16.5899 15.6406 17.0918C15.6405 17.5937 15.2333 18.0008 14.7314 18.001H9.24219C8.74017 18.001 8.3331 17.5938 8.33301 17.0918C8.33301 16.5897 8.74011 16.1826 9.24219 16.1826H14.7314ZM0.137695 12.7285C1.23976 8.63711 9.72923 9.54632 11.0996 15.4551H9.27051C8.66121 14.6974 6.89572 13.1827 4.7041 13.1826C1.96391 13.1826 2.4204 16.8527 5.61719 15.9102C3.63834 16.8191 -0.841233 16.3636 0.137695 12.7285ZM12.9004 15.4551C14.2709 9.54642 22.7603 8.63713 23.8623 12.7285C24.8411 16.3636 20.3606 16.8192 18.3818 15.9102C21.5786 16.8528 22.0357 13.1829 19.2959 13.1826C17.104 13.1826 15.3377 14.6974 14.7285 15.4551H12.9004ZM12.0127 0.0449219C12.9362 1.58448 14.8216 5.1117 15.1836 7.27246C15.6403 9.99972 14.2699 10.4547 13.3564 11.8184C12.6617 12.8557 12.1885 14.5234 12.0127 15.3359V15.4541C12.0088 15.4348 12.0033 15.4151 11.999 15.3945C11.9947 15.4151 11.9902 15.4349 11.9863 15.4541V15.334C11.8102 14.5207 11.3368 12.8549 10.6426 11.8184C9.72917 10.4547 8.35872 9.99973 8.81543 7.27246C9.17733 5.1118 11.0627 1.5846 11.9863 0.0449219V0C11.9907 0.00725864 11.9946 0.0151088 11.999 0.0224609C12.0036 0.0149071 12.0082 0.00745461 12.0127 0V0.0449219Z" fill="#460107"/>
</svg>
