<svg width="14" height="14" viewBox="0 0 14 14" fill="none" xmlns="http://www.w3.org/2000/svg">
<path d="M5.05859 8.35873C5.05859 9.11123 5.63609 9.71789 6.35361 9.71789H7.81777C8.44194 9.71789 8.94944 9.18706 8.94944 8.53373C8.94944 7.82206 8.64027 7.57123 8.17944 7.40789L5.82859 6.59123C5.36775 6.42789 5.05859 6.17706 5.05859 5.46542C5.05859 4.81208 5.56609 4.28125 6.19027 4.28125H7.65444C8.37194 4.28125 8.94944 4.88792 8.94944 5.64042" stroke="#151515" stroke-linecap="round" stroke-linejoin="round"/>
<path d="M7 3.5V10.5" stroke="#151515" stroke-linecap="round" stroke-linejoin="round"/>
<path d="M7.00008 12.8346C10.2217 12.8346 12.8334 10.2229 12.8334 7.0013C12.8334 3.77964 10.2217 1.16797 7.00008 1.16797C3.77842 1.16797 1.16675 3.77964 1.16675 7.0013C1.16675 10.2229 3.77842 12.8346 7.00008 12.8346Z" stroke="#151515" stroke-linecap="round" stroke-linejoin="round"/>
</svg>
